<?xml version="1.0" encoding="utf-8" standalone="no"?>
<!DOCTYPE svg PUBLIC "-//W3C//DTD SVG 1.1//EN"
  "http://www.w3.org/Graphics/SVG/1.1/DTD/svg11.dtd">
<svg height="432pt" version="1.1" viewBox="0 0 720 432" width="720pt" xmlns="http://www.w3.org/2000/svg" xmlns:xlink="http://www.w3.org/1999/xlink">
 <metadata>
  <rdf:RDF xmlns:cc="http://creativecommons.org/ns#" xmlns:dc="http://purl.org/dc/elements/1.1/" xmlns:rdf="http://www.w3.org/1999/02/22-rdf-syntax-ns#">
   <cc:Work>
    <dc:type rdf:resource="http://purl.org/dc/dcmitype/StillImage"/>
    <dc:date>2023-05-17T10:52:28.047394</dc:date>
    <dc:format>image/svg+xml</dc:format>
    <dc:creator>
     <cc:Agent>
      <dc:title>Matplotlib v3.4.3, https://matplotlib.org/</dc:title>
     </cc:Agent>
    </dc:creator>
   </cc:Work>
  </rdf:RDF>
 </metadata>
 <defs>
  <style type="text/css">*{stroke-linecap:butt;stroke-linejoin:round;}</style>
 </defs>
 <g id="figure_1">
  <g id="patch_1">
   <path d="M 0 432 
L 720 432 
L 720 0 
L 0 0 
z
" style="fill:#ffffff;"/>
  </g>
  <g id="axes_1">
   <g id="patch_2">
    <path d="M 115.490625 360.6875 
L 698.4 360.6875 
L 698.4 21.6 
L 115.490625 21.6 
z
" style="fill:#ffffff;"/>
   </g>
   <g id="matplotlib.axis_1">
    <g id="xtick_1">
     <g id="line2d_1">
      <path clip-path="url(#p189847ad76)" d="M 182.749399 360.6875 
L 182.749399 21.6 
" style="fill:none;stroke:#cccccc;stroke-linecap:round;stroke-width:0.8;"/>
     </g>
     <g id="text_1">
      <!-- 10% -->
      <g style="fill:#262626;" transform="translate(160.522837 382.884375)scale(0.2 -0.2)">
       <defs>
        <path d="M 794 531 
L 1825 531 
L 1825 4091 
L 703 3866 
L 703 4441 
L 1819 4666 
L 2450 4666 
L 2450 531 
L 3481 531 
L 3481 0 
L 794 0 
L 794 531 
z
" id="DejaVuSans-31" transform="scale(0.015625)"/>
        <path d="M 2034 4250 
Q 1547 4250 1301 3770 
Q 1056 3291 1056 2328 
Q 1056 1369 1301 889 
Q 1547 409 2034 409 
Q 2525 409 2770 889 
Q 3016 1369 3016 2328 
Q 3016 3291 2770 3770 
Q 2525 4250 2034 4250 
z
M 2034 4750 
Q 2819 4750 3233 4129 
Q 3647 3509 3647 2328 
Q 3647 1150 3233 529 
Q 2819 -91 2034 -91 
Q 1250 -91 836 529 
Q 422 1150 422 2328 
Q 422 3509 836 4129 
Q 1250 4750 2034 4750 
z
" id="DejaVuSans-30" transform="scale(0.015625)"/>
        <path d="M 4653 2053 
Q 4381 2053 4226 1822 
Q 4072 1591 4072 1178 
Q 4072 772 4226 539 
Q 4381 306 4653 306 
Q 4919 306 5073 539 
Q 5228 772 5228 1178 
Q 5228 1588 5073 1820 
Q 4919 2053 4653 2053 
z
M 4653 2450 
Q 5147 2450 5437 2106 
Q 5728 1763 5728 1178 
Q 5728 594 5436 251 
Q 5144 -91 4653 -91 
Q 4153 -91 3862 251 
Q 3572 594 3572 1178 
Q 3572 1766 3864 2108 
Q 4156 2450 4653 2450 
z
M 1428 4353 
Q 1159 4353 1004 4120 
Q 850 3888 850 3481 
Q 850 3069 1003 2837 
Q 1156 2606 1428 2606 
Q 1700 2606 1854 2837 
Q 2009 3069 2009 3481 
Q 2009 3884 1853 4118 
Q 1697 4353 1428 4353 
z
M 4250 4750 
L 4750 4750 
L 1831 -91 
L 1331 -91 
L 4250 4750 
z
M 1428 4750 
Q 1922 4750 2215 4408 
Q 2509 4066 2509 3481 
Q 2509 2891 2217 2550 
Q 1925 2209 1428 2209 
Q 931 2209 642 2551 
Q 353 2894 353 3481 
Q 353 4063 643 4406 
Q 934 4750 1428 4750 
z
" id="DejaVuSans-25" transform="scale(0.015625)"/>
       </defs>
       <use xlink:href="#DejaVuSans-31"/>
       <use x="63.623047" xlink:href="#DejaVuSans-30"/>
       <use x="127.246094" xlink:href="#DejaVuSans-25"/>
      </g>
     </g>
    </g>
    <g id="xtick_2">
     <g id="line2d_2">
      <path clip-path="url(#p189847ad76)" d="M 264.275186 360.6875 
L 264.275186 21.6 
" style="fill:none;stroke:#cccccc;stroke-linecap:round;stroke-width:0.8;"/>
     </g>
     <g id="text_2">
      <!-- 20% -->
      <g style="fill:#262626;" transform="translate(242.048623 382.884375)scale(0.2 -0.2)">
       <defs>
        <path d="M 1228 531 
L 3431 531 
L 3431 0 
L 469 0 
L 469 531 
Q 828 903 1448 1529 
Q 2069 2156 2228 2338 
Q 2531 2678 2651 2914 
Q 2772 3150 2772 3378 
Q 2772 3750 2511 3984 
Q 2250 4219 1831 4219 
Q 1534 4219 1204 4116 
Q 875 4013 500 3803 
L 500 4441 
Q 881 4594 1212 4672 
Q 1544 4750 1819 4750 
Q 2544 4750 2975 4387 
Q 3406 4025 3406 3419 
Q 3406 3131 3298 2873 
Q 3191 2616 2906 2266 
Q 2828 2175 2409 1742 
Q 1991 1309 1228 531 
z
" id="DejaVuSans-32" transform="scale(0.015625)"/>
       </defs>
       <use xlink:href="#DejaVuSans-32"/>
       <use x="63.623047" xlink:href="#DejaVuSans-30"/>
       <use x="127.246094" xlink:href="#DejaVuSans-25"/>
      </g>
     </g>
    </g>
    <g id="xtick_3">
     <g id="line2d_3">
      <path clip-path="url(#p189847ad76)" d="M 345.800972 360.6875 
L 345.800972 21.6 
" style="fill:none;stroke:#cccccc;stroke-linecap:round;stroke-width:0.8;"/>
     </g>
     <g id="text_3">
      <!-- 30% -->
      <g style="fill:#262626;" transform="translate(323.57441 382.884375)scale(0.2 -0.2)">
       <defs>
        <path d="M 2597 2516 
Q 3050 2419 3304 2112 
Q 3559 1806 3559 1356 
Q 3559 666 3084 287 
Q 2609 -91 1734 -91 
Q 1441 -91 1130 -33 
Q 819 25 488 141 
L 488 750 
Q 750 597 1062 519 
Q 1375 441 1716 441 
Q 2309 441 2620 675 
Q 2931 909 2931 1356 
Q 2931 1769 2642 2001 
Q 2353 2234 1838 2234 
L 1294 2234 
L 1294 2753 
L 1863 2753 
Q 2328 2753 2575 2939 
Q 2822 3125 2822 3475 
Q 2822 3834 2567 4026 
Q 2313 4219 1838 4219 
Q 1578 4219 1281 4162 
Q 984 4106 628 3988 
L 628 4550 
Q 988 4650 1302 4700 
Q 1616 4750 1894 4750 
Q 2613 4750 3031 4423 
Q 3450 4097 3450 3541 
Q 3450 3153 3228 2886 
Q 3006 2619 2597 2516 
z
" id="DejaVuSans-33" transform="scale(0.015625)"/>
       </defs>
       <use xlink:href="#DejaVuSans-33"/>
       <use x="63.623047" xlink:href="#DejaVuSans-30"/>
       <use x="127.246094" xlink:href="#DejaVuSans-25"/>
      </g>
     </g>
    </g>
    <g id="xtick_4">
     <g id="line2d_4">
      <path clip-path="url(#p189847ad76)" d="M 427.326759 360.6875 
L 427.326759 21.6 
" style="fill:none;stroke:#cccccc;stroke-linecap:round;stroke-width:0.8;"/>
     </g>
     <g id="text_4">
      <!-- 40% -->
      <g style="fill:#262626;" transform="translate(405.100197 382.884375)scale(0.2 -0.2)">
       <defs>
        <path d="M 2419 4116 
L 825 1625 
L 2419 1625 
L 2419 4116 
z
M 2253 4666 
L 3047 4666 
L 3047 1625 
L 3713 1625 
L 3713 1100 
L 3047 1100 
L 3047 0 
L 2419 0 
L 2419 1100 
L 313 1100 
L 313 1709 
L 2253 4666 
z
" id="DejaVuSans-34" transform="scale(0.015625)"/>
       </defs>
       <use xlink:href="#DejaVuSans-34"/>
       <use x="63.623047" xlink:href="#DejaVuSans-30"/>
       <use x="127.246094" xlink:href="#DejaVuSans-25"/>
      </g>
     </g>
    </g>
    <g id="xtick_5">
     <g id="line2d_5">
      <path clip-path="url(#p189847ad76)" d="M 508.852546 360.6875 
L 508.852546 21.6 
" style="fill:none;stroke:#cccccc;stroke-linecap:round;stroke-width:0.8;"/>
     </g>
     <g id="text_5">
      <!-- 50% -->
      <g style="fill:#262626;" transform="translate(486.625983 382.884375)scale(0.2 -0.2)">
       <defs>
        <path d="M 691 4666 
L 3169 4666 
L 3169 4134 
L 1269 4134 
L 1269 2991 
Q 1406 3038 1543 3061 
Q 1681 3084 1819 3084 
Q 2600 3084 3056 2656 
Q 3513 2228 3513 1497 
Q 3513 744 3044 326 
Q 2575 -91 1722 -91 
Q 1428 -91 1123 -41 
Q 819 9 494 109 
L 494 744 
Q 775 591 1075 516 
Q 1375 441 1709 441 
Q 2250 441 2565 725 
Q 2881 1009 2881 1497 
Q 2881 1984 2565 2268 
Q 2250 2553 1709 2553 
Q 1456 2553 1204 2497 
Q 953 2441 691 2322 
L 691 4666 
z
" id="DejaVuSans-35" transform="scale(0.015625)"/>
       </defs>
       <use xlink:href="#DejaVuSans-35"/>
       <use x="63.623047" xlink:href="#DejaVuSans-30"/>
       <use x="127.246094" xlink:href="#DejaVuSans-25"/>
      </g>
     </g>
    </g>
    <g id="xtick_6">
     <g id="line2d_6">
      <path clip-path="url(#p189847ad76)" d="M 590.378333 360.6875 
L 590.378333 21.6 
" style="fill:none;stroke:#cccccc;stroke-linecap:round;stroke-width:0.8;"/>
     </g>
     <g id="text_6">
      <!-- 60% -->
      <g style="fill:#262626;" transform="translate(568.15177 382.884375)scale(0.2 -0.2)">
       <defs>
        <path d="M 2113 2584 
Q 1688 2584 1439 2293 
Q 1191 2003 1191 1497 
Q 1191 994 1439 701 
Q 1688 409 2113 409 
Q 2538 409 2786 701 
Q 3034 994 3034 1497 
Q 3034 2003 2786 2293 
Q 2538 2584 2113 2584 
z
M 3366 4563 
L 3366 3988 
Q 3128 4100 2886 4159 
Q 2644 4219 2406 4219 
Q 1781 4219 1451 3797 
Q 1122 3375 1075 2522 
Q 1259 2794 1537 2939 
Q 1816 3084 2150 3084 
Q 2853 3084 3261 2657 
Q 3669 2231 3669 1497 
Q 3669 778 3244 343 
Q 2819 -91 2113 -91 
Q 1303 -91 875 529 
Q 447 1150 447 2328 
Q 447 3434 972 4092 
Q 1497 4750 2381 4750 
Q 2619 4750 2861 4703 
Q 3103 4656 3366 4563 
z
" id="DejaVuSans-36" transform="scale(0.015625)"/>
       </defs>
       <use xlink:href="#DejaVuSans-36"/>
       <use x="63.623047" xlink:href="#DejaVuSans-30"/>
       <use x="127.246094" xlink:href="#DejaVuSans-25"/>
      </g>
     </g>
    </g>
    <g id="xtick_7">
     <g id="line2d_7">
      <path clip-path="url(#p189847ad76)" d="M 671.904119 360.6875 
L 671.904119 21.6 
" style="fill:none;stroke:#cccccc;stroke-linecap:round;stroke-width:0.8;"/>
     </g>
     <g id="text_7">
      <!-- 70% -->
      <g style="fill:#262626;" transform="translate(649.677557 382.884375)scale(0.2 -0.2)">
       <defs>
        <path d="M 525 4666 
L 3525 4666 
L 3525 4397 
L 1831 0 
L 1172 0 
L 2766 4134 
L 525 4134 
L 525 4666 
z
" id="DejaVuSans-37" transform="scale(0.015625)"/>
       </defs>
       <use xlink:href="#DejaVuSans-37"/>
       <use x="63.623047" xlink:href="#DejaVuSans-30"/>
       <use x="127.246094" xlink:href="#DejaVuSans-25"/>
      </g>
     </g>
    </g>
    <g id="text_8">
     <!-- Neuron Sparsity -->
     <g style="fill:#262626;" transform="translate(326.690625 406.240625)scale(0.2 -0.2)">
      <defs>
       <path d="M 628 4666 
L 1478 4666 
L 3547 763 
L 3547 4666 
L 4159 4666 
L 4159 0 
L 3309 0 
L 1241 3903 
L 1241 0 
L 628 0 
L 628 4666 
z
" id="DejaVuSans-4e" transform="scale(0.015625)"/>
       <path d="M 3597 1894 
L 3597 1613 
L 953 1613 
Q 991 1019 1311 708 
Q 1631 397 2203 397 
Q 2534 397 2845 478 
Q 3156 559 3463 722 
L 3463 178 
Q 3153 47 2828 -22 
Q 2503 -91 2169 -91 
Q 1331 -91 842 396 
Q 353 884 353 1716 
Q 353 2575 817 3079 
Q 1281 3584 2069 3584 
Q 2775 3584 3186 3129 
Q 3597 2675 3597 1894 
z
M 3022 2063 
Q 3016 2534 2758 2815 
Q 2500 3097 2075 3097 
Q 1594 3097 1305 2825 
Q 1016 2553 972 2059 
L 3022 2063 
z
" id="DejaVuSans-65" transform="scale(0.015625)"/>
       <path d="M 544 1381 
L 544 3500 
L 1119 3500 
L 1119 1403 
Q 1119 906 1312 657 
Q 1506 409 1894 409 
Q 2359 409 2629 706 
Q 2900 1003 2900 1516 
L 2900 3500 
L 3475 3500 
L 3475 0 
L 2900 0 
L 2900 538 
Q 2691 219 2414 64 
Q 2138 -91 1772 -91 
Q 1169 -91 856 284 
Q 544 659 544 1381 
z
M 1991 3584 
L 1991 3584 
z
" id="DejaVuSans-75" transform="scale(0.015625)"/>
       <path d="M 2631 2963 
Q 2534 3019 2420 3045 
Q 2306 3072 2169 3072 
Q 1681 3072 1420 2755 
Q 1159 2438 1159 1844 
L 1159 0 
L 581 0 
L 581 3500 
L 1159 3500 
L 1159 2956 
Q 1341 3275 1631 3429 
Q 1922 3584 2338 3584 
Q 2397 3584 2469 3576 
Q 2541 3569 2628 3553 
L 2631 2963 
z
" id="DejaVuSans-72" transform="scale(0.015625)"/>
       <path d="M 1959 3097 
Q 1497 3097 1228 2736 
Q 959 2375 959 1747 
Q 959 1119 1226 758 
Q 1494 397 1959 397 
Q 2419 397 2687 759 
Q 2956 1122 2956 1747 
Q 2956 2369 2687 2733 
Q 2419 3097 1959 3097 
z
M 1959 3584 
Q 2709 3584 3137 3096 
Q 3566 2609 3566 1747 
Q 3566 888 3137 398 
Q 2709 -91 1959 -91 
Q 1206 -91 779 398 
Q 353 888 353 1747 
Q 353 2609 779 3096 
Q 1206 3584 1959 3584 
z
" id="DejaVuSans-6f" transform="scale(0.015625)"/>
       <path d="M 3513 2113 
L 3513 0 
L 2938 0 
L 2938 2094 
Q 2938 2591 2744 2837 
Q 2550 3084 2163 3084 
Q 1697 3084 1428 2787 
Q 1159 2491 1159 1978 
L 1159 0 
L 581 0 
L 581 3500 
L 1159 3500 
L 1159 2956 
Q 1366 3272 1645 3428 
Q 1925 3584 2291 3584 
Q 2894 3584 3203 3211 
Q 3513 2838 3513 2113 
z
" id="DejaVuSans-6e" transform="scale(0.015625)"/>
       <path id="DejaVuSans-20" transform="scale(0.015625)"/>
       <path d="M 3425 4513 
L 3425 3897 
Q 3066 4069 2747 4153 
Q 2428 4238 2131 4238 
Q 1616 4238 1336 4038 
Q 1056 3838 1056 3469 
Q 1056 3159 1242 3001 
Q 1428 2844 1947 2747 
L 2328 2669 
Q 3034 2534 3370 2195 
Q 3706 1856 3706 1288 
Q 3706 609 3251 259 
Q 2797 -91 1919 -91 
Q 1588 -91 1214 -16 
Q 841 59 441 206 
L 441 856 
Q 825 641 1194 531 
Q 1563 422 1919 422 
Q 2459 422 2753 634 
Q 3047 847 3047 1241 
Q 3047 1584 2836 1778 
Q 2625 1972 2144 2069 
L 1759 2144 
Q 1053 2284 737 2584 
Q 422 2884 422 3419 
Q 422 4038 858 4394 
Q 1294 4750 2059 4750 
Q 2388 4750 2728 4690 
Q 3069 4631 3425 4513 
z
" id="DejaVuSans-53" transform="scale(0.015625)"/>
       <path d="M 1159 525 
L 1159 -1331 
L 581 -1331 
L 581 3500 
L 1159 3500 
L 1159 2969 
Q 1341 3281 1617 3432 
Q 1894 3584 2278 3584 
Q 2916 3584 3314 3078 
Q 3713 2572 3713 1747 
Q 3713 922 3314 415 
Q 2916 -91 2278 -91 
Q 1894 -91 1617 61 
Q 1341 213 1159 525 
z
M 3116 1747 
Q 3116 2381 2855 2742 
Q 2594 3103 2138 3103 
Q 1681 3103 1420 2742 
Q 1159 2381 1159 1747 
Q 1159 1113 1420 752 
Q 1681 391 2138 391 
Q 2594 391 2855 752 
Q 3116 1113 3116 1747 
z
" id="DejaVuSans-70" transform="scale(0.015625)"/>
       <path d="M 2194 1759 
Q 1497 1759 1228 1600 
Q 959 1441 959 1056 
Q 959 750 1161 570 
Q 1363 391 1709 391 
Q 2188 391 2477 730 
Q 2766 1069 2766 1631 
L 2766 1759 
L 2194 1759 
z
M 3341 1997 
L 3341 0 
L 2766 0 
L 2766 531 
Q 2569 213 2275 61 
Q 1981 -91 1556 -91 
Q 1019 -91 701 211 
Q 384 513 384 1019 
Q 384 1609 779 1909 
Q 1175 2209 1959 2209 
L 2766 2209 
L 2766 2266 
Q 2766 2663 2505 2880 
Q 2244 3097 1772 3097 
Q 1472 3097 1187 3025 
Q 903 2953 641 2809 
L 641 3341 
Q 956 3463 1253 3523 
Q 1550 3584 1831 3584 
Q 2591 3584 2966 3190 
Q 3341 2797 3341 1997 
z
" id="DejaVuSans-61" transform="scale(0.015625)"/>
       <path d="M 2834 3397 
L 2834 2853 
Q 2591 2978 2328 3040 
Q 2066 3103 1784 3103 
Q 1356 3103 1142 2972 
Q 928 2841 928 2578 
Q 928 2378 1081 2264 
Q 1234 2150 1697 2047 
L 1894 2003 
Q 2506 1872 2764 1633 
Q 3022 1394 3022 966 
Q 3022 478 2636 193 
Q 2250 -91 1575 -91 
Q 1294 -91 989 -36 
Q 684 19 347 128 
L 347 722 
Q 666 556 975 473 
Q 1284 391 1588 391 
Q 1994 391 2212 530 
Q 2431 669 2431 922 
Q 2431 1156 2273 1281 
Q 2116 1406 1581 1522 
L 1381 1569 
Q 847 1681 609 1914 
Q 372 2147 372 2553 
Q 372 3047 722 3315 
Q 1072 3584 1716 3584 
Q 2034 3584 2315 3537 
Q 2597 3491 2834 3397 
z
" id="DejaVuSans-73" transform="scale(0.015625)"/>
       <path d="M 603 3500 
L 1178 3500 
L 1178 0 
L 603 0 
L 603 3500 
z
M 603 4863 
L 1178 4863 
L 1178 4134 
L 603 4134 
L 603 4863 
z
" id="DejaVuSans-69" transform="scale(0.015625)"/>
       <path d="M 1172 4494 
L 1172 3500 
L 2356 3500 
L 2356 3053 
L 1172 3053 
L 1172 1153 
Q 1172 725 1289 603 
Q 1406 481 1766 481 
L 2356 481 
L 2356 0 
L 1766 0 
Q 1100 0 847 248 
Q 594 497 594 1153 
L 594 3053 
L 172 3053 
L 172 3500 
L 594 3500 
L 594 4494 
L 1172 4494 
z
" id="DejaVuSans-74" transform="scale(0.015625)"/>
       <path d="M 2059 -325 
Q 1816 -950 1584 -1140 
Q 1353 -1331 966 -1331 
L 506 -1331 
L 506 -850 
L 844 -850 
Q 1081 -850 1212 -737 
Q 1344 -625 1503 -206 
L 1606 56 
L 191 3500 
L 800 3500 
L 1894 763 
L 2988 3500 
L 3597 3500 
L 2059 -325 
z
" id="DejaVuSans-79" transform="scale(0.015625)"/>
      </defs>
      <use xlink:href="#DejaVuSans-4e"/>
      <use x="74.804688" xlink:href="#DejaVuSans-65"/>
      <use x="136.328125" xlink:href="#DejaVuSans-75"/>
      <use x="199.707031" xlink:href="#DejaVuSans-72"/>
      <use x="238.570312" xlink:href="#DejaVuSans-6f"/>
      <use x="299.751953" xlink:href="#DejaVuSans-6e"/>
      <use x="363.130859" xlink:href="#DejaVuSans-20"/>
      <use x="394.917969" xlink:href="#DejaVuSans-53"/>
      <use x="458.394531" xlink:href="#DejaVuSans-70"/>
      <use x="521.871094" xlink:href="#DejaVuSans-61"/>
      <use x="583.150391" xlink:href="#DejaVuSans-72"/>
      <use x="624.263672" xlink:href="#DejaVuSans-73"/>
      <use x="676.363281" xlink:href="#DejaVuSans-69"/>
      <use x="704.146484" xlink:href="#DejaVuSans-74"/>
      <use x="743.355469" xlink:href="#DejaVuSans-79"/>
     </g>
    </g>
   </g>
   <g id="matplotlib.axis_2">
    <g id="ytick_1">
     <g id="line2d_8">
      <path clip-path="url(#p189847ad76)" d="M 115.490625 342.552924 
L 698.4 342.552924 
" style="fill:none;stroke:#cccccc;stroke-linecap:round;stroke-width:0.8;"/>
     </g>
     <g id="text_9">
      <!-- 78.0% -->
      <g style="fill:#262626;" transform="translate(44.95625 350.151362)scale(0.2 -0.2)">
       <defs>
        <path d="M 2034 2216 
Q 1584 2216 1326 1975 
Q 1069 1734 1069 1313 
Q 1069 891 1326 650 
Q 1584 409 2034 409 
Q 2484 409 2743 651 
Q 3003 894 3003 1313 
Q 3003 1734 2745 1975 
Q 2488 2216 2034 2216 
z
M 1403 2484 
Q 997 2584 770 2862 
Q 544 3141 544 3541 
Q 544 4100 942 4425 
Q 1341 4750 2034 4750 
Q 2731 4750 3128 4425 
Q 3525 4100 3525 3541 
Q 3525 3141 3298 2862 
Q 3072 2584 2669 2484 
Q 3125 2378 3379 2068 
Q 3634 1759 3634 1313 
Q 3634 634 3220 271 
Q 2806 -91 2034 -91 
Q 1263 -91 848 271 
Q 434 634 434 1313 
Q 434 1759 690 2068 
Q 947 2378 1403 2484 
z
M 1172 3481 
Q 1172 3119 1398 2916 
Q 1625 2713 2034 2713 
Q 2441 2713 2670 2916 
Q 2900 3119 2900 3481 
Q 2900 3844 2670 4047 
Q 2441 4250 2034 4250 
Q 1625 4250 1398 4047 
Q 1172 3844 1172 3481 
z
" id="DejaVuSans-38" transform="scale(0.015625)"/>
        <path d="M 684 794 
L 1344 794 
L 1344 0 
L 684 0 
L 684 794 
z
" id="DejaVuSans-2e" transform="scale(0.015625)"/>
       </defs>
       <use xlink:href="#DejaVuSans-37"/>
       <use x="63.623047" xlink:href="#DejaVuSans-38"/>
       <use x="127.246094" xlink:href="#DejaVuSans-2e"/>
       <use x="159.033203" xlink:href="#DejaVuSans-30"/>
       <use x="222.65625" xlink:href="#DejaVuSans-25"/>
      </g>
     </g>
    </g>
    <g id="ytick_2">
     <g id="line2d_9">
      <path clip-path="url(#p189847ad76)" d="M 115.490625 298.022369 
L 698.4 298.022369 
" style="fill:none;stroke:#cccccc;stroke-linecap:round;stroke-width:0.8;"/>
     </g>
     <g id="text_10">
      <!-- 80.0% -->
      <g style="fill:#262626;" transform="translate(44.95625 305.620806)scale(0.2 -0.2)">
       <use xlink:href="#DejaVuSans-38"/>
       <use x="63.623047" xlink:href="#DejaVuSans-30"/>
       <use x="127.246094" xlink:href="#DejaVuSans-2e"/>
       <use x="159.033203" xlink:href="#DejaVuSans-30"/>
       <use x="222.65625" xlink:href="#DejaVuSans-25"/>
      </g>
     </g>
    </g>
    <g id="ytick_3">
     <g id="line2d_10">
      <path clip-path="url(#p189847ad76)" d="M 115.490625 253.491813 
L 698.4 253.491813 
" style="fill:none;stroke:#cccccc;stroke-linecap:round;stroke-width:0.8;"/>
     </g>
     <g id="text_11">
      <!-- 82.0% -->
      <g style="fill:#262626;" transform="translate(44.95625 261.09025)scale(0.2 -0.2)">
       <use xlink:href="#DejaVuSans-38"/>
       <use x="63.623047" xlink:href="#DejaVuSans-32"/>
       <use x="127.246094" xlink:href="#DejaVuSans-2e"/>
       <use x="159.033203" xlink:href="#DejaVuSans-30"/>
       <use x="222.65625" xlink:href="#DejaVuSans-25"/>
      </g>
     </g>
    </g>
    <g id="ytick_4">
     <g id="line2d_11">
      <path clip-path="url(#p189847ad76)" d="M 115.490625 208.961257 
L 698.4 208.961257 
" style="fill:none;stroke:#cccccc;stroke-linecap:round;stroke-width:0.8;"/>
     </g>
     <g id="text_12">
      <!-- 84.0% -->
      <g style="fill:#262626;" transform="translate(44.95625 216.559694)scale(0.2 -0.2)">
       <use xlink:href="#DejaVuSans-38"/>
       <use x="63.623047" xlink:href="#DejaVuSans-34"/>
       <use x="127.246094" xlink:href="#DejaVuSans-2e"/>
       <use x="159.033203" xlink:href="#DejaVuSans-30"/>
       <use x="222.65625" xlink:href="#DejaVuSans-25"/>
      </g>
     </g>
    </g>
    <g id="ytick_5">
     <g id="line2d_12">
      <path clip-path="url(#p189847ad76)" d="M 115.490625 164.430701 
L 698.4 164.430701 
" style="fill:none;stroke:#cccccc;stroke-linecap:round;stroke-width:0.8;"/>
     </g>
     <g id="text_13">
      <!-- 86.0% -->
      <g style="fill:#262626;" transform="translate(44.95625 172.029138)scale(0.2 -0.2)">
       <use xlink:href="#DejaVuSans-38"/>
       <use x="63.623047" xlink:href="#DejaVuSans-36"/>
       <use x="127.246094" xlink:href="#DejaVuSans-2e"/>
       <use x="159.033203" xlink:href="#DejaVuSans-30"/>
       <use x="222.65625" xlink:href="#DejaVuSans-25"/>
      </g>
     </g>
    </g>
    <g id="ytick_6">
     <g id="line2d_13">
      <path clip-path="url(#p189847ad76)" d="M 115.490625 119.900145 
L 698.4 119.900145 
" style="fill:none;stroke:#cccccc;stroke-linecap:round;stroke-width:0.8;"/>
     </g>
     <g id="text_14">
      <!-- 88.0% -->
      <g style="fill:#262626;" transform="translate(44.95625 127.498583)scale(0.2 -0.2)">
       <use xlink:href="#DejaVuSans-38"/>
       <use x="63.623047" xlink:href="#DejaVuSans-38"/>
       <use x="127.246094" xlink:href="#DejaVuSans-2e"/>
       <use x="159.033203" xlink:href="#DejaVuSans-30"/>
       <use x="222.65625" xlink:href="#DejaVuSans-25"/>
      </g>
     </g>
    </g>
    <g id="ytick_7">
     <g id="line2d_14">
      <path clip-path="url(#p189847ad76)" d="M 115.490625 75.369589 
L 698.4 75.369589 
" style="fill:none;stroke:#cccccc;stroke-linecap:round;stroke-width:0.8;"/>
     </g>
     <g id="text_15">
      <!-- 90.0% -->
      <g style="fill:#262626;" transform="translate(44.95625 82.968027)scale(0.2 -0.2)">
       <defs>
        <path d="M 703 97 
L 703 672 
Q 941 559 1184 500 
Q 1428 441 1663 441 
Q 2288 441 2617 861 
Q 2947 1281 2994 2138 
Q 2813 1869 2534 1725 
Q 2256 1581 1919 1581 
Q 1219 1581 811 2004 
Q 403 2428 403 3163 
Q 403 3881 828 4315 
Q 1253 4750 1959 4750 
Q 2769 4750 3195 4129 
Q 3622 3509 3622 2328 
Q 3622 1225 3098 567 
Q 2575 -91 1691 -91 
Q 1453 -91 1209 -44 
Q 966 3 703 97 
z
M 1959 2075 
Q 2384 2075 2632 2365 
Q 2881 2656 2881 3163 
Q 2881 3666 2632 3958 
Q 2384 4250 1959 4250 
Q 1534 4250 1286 3958 
Q 1038 3666 1038 3163 
Q 1038 2656 1286 2365 
Q 1534 2075 1959 2075 
z
" id="DejaVuSans-39" transform="scale(0.015625)"/>
       </defs>
       <use xlink:href="#DejaVuSans-39"/>
       <use x="63.623047" xlink:href="#DejaVuSans-30"/>
       <use x="127.246094" xlink:href="#DejaVuSans-2e"/>
       <use x="159.033203" xlink:href="#DejaVuSans-30"/>
       <use x="222.65625" xlink:href="#DejaVuSans-25"/>
      </g>
     </g>
    </g>
    <g id="ytick_8">
     <g id="line2d_15">
      <path clip-path="url(#p189847ad76)" d="M 115.490625 30.839033 
L 698.4 30.839033 
" style="fill:none;stroke:#cccccc;stroke-linecap:round;stroke-width:0.8;"/>
     </g>
     <g id="text_16">
      <!-- 92.0% -->
      <g style="fill:#262626;" transform="translate(44.95625 38.437471)scale(0.2 -0.2)">
       <use xlink:href="#DejaVuSans-39"/>
       <use x="63.623047" xlink:href="#DejaVuSans-32"/>
       <use x="127.246094" xlink:href="#DejaVuSans-2e"/>
       <use x="159.033203" xlink:href="#DejaVuSans-30"/>
       <use x="222.65625" xlink:href="#DejaVuSans-25"/>
      </g>
     </g>
    </g>
    <g id="text_17">
     <!-- Accuracy -->
     <g style="fill:#262626;" transform="translate(36.796875 236.8)rotate(-90)scale(0.2 -0.2)">
      <defs>
       <path d="M 2188 4044 
L 1331 1722 
L 3047 1722 
L 2188 4044 
z
M 1831 4666 
L 2547 4666 
L 4325 0 
L 3669 0 
L 3244 1197 
L 1141 1197 
L 716 0 
L 50 0 
L 1831 4666 
z
" id="DejaVuSans-41" transform="scale(0.015625)"/>
       <path d="M 3122 3366 
L 3122 2828 
Q 2878 2963 2633 3030 
Q 2388 3097 2138 3097 
Q 1578 3097 1268 2742 
Q 959 2388 959 1747 
Q 959 1106 1268 751 
Q 1578 397 2138 397 
Q 2388 397 2633 464 
Q 2878 531 3122 666 
L 3122 134 
Q 2881 22 2623 -34 
Q 2366 -91 2075 -91 
Q 1284 -91 818 406 
Q 353 903 353 1747 
Q 353 2603 823 3093 
Q 1294 3584 2113 3584 
Q 2378 3584 2631 3529 
Q 2884 3475 3122 3366 
z
" id="DejaVuSans-63" transform="scale(0.015625)"/>
      </defs>
      <use xlink:href="#DejaVuSans-41"/>
      <use x="66.658203" xlink:href="#DejaVuSans-63"/>
      <use x="121.638672" xlink:href="#DejaVuSans-63"/>
      <use x="176.619141" xlink:href="#DejaVuSans-75"/>
      <use x="239.998047" xlink:href="#DejaVuSans-72"/>
      <use x="281.111328" xlink:href="#DejaVuSans-61"/>
      <use x="342.390625" xlink:href="#DejaVuSans-63"/>
      <use x="397.371094" xlink:href="#DejaVuSans-79"/>
     </g>
    </g>
   </g>
   <g id="PolyCollection_1"/>
   <g id="PolyCollection_2"/>
   <g id="PolyCollection_3"/>
   <g id="PolyCollection_4"/>
   <g id="line2d_16">
    <path clip-path="url(#p189847ad76)" d="M 141.986506 38.994748 
L 182.749399 39.655308 
L 223.512292 40.536055 
L 264.275186 40.315869 
L 305.038079 43.178295 
L 345.800972 50.444456 
L 386.563866 53.967443 
L 427.326759 60.793231 
L 468.089653 74.004432 
L 508.852546 80.389846 
L 549.615439 107.913182 
L 590.378333 133.234651 
L 631.141226 158.115747 
L 671.904119 203.914578 
" style="fill:none;stroke:#1f77b4;stroke-linecap:round;stroke-width:3;"/>
    <defs>
     <path d="M 0 3.5 
C 0.928211 3.5 1.81853 3.131218 2.474874 2.474874 
C 3.131218 1.81853 3.5 0.928211 3.5 0 
C 3.5 -0.928211 3.131218 -1.81853 2.474874 -2.474874 
C 1.81853 -3.131218 0.928211 -3.5 0 -3.5 
C -0.928211 -3.5 -1.81853 -3.131218 -2.474874 -2.474874 
C -3.131218 -1.81853 -3.5 -0.928211 -3.5 0 
C -3.5 0.928211 -3.131218 1.81853 -2.474874 2.474874 
C -1.81853 3.131218 -0.928211 3.5 0 3.5 
z
" id="m2f71656dab" style="stroke:#ffffff;stroke-width:0.75;"/>
    </defs>
    <g clip-path="url(#p189847ad76)">
     <use style="fill:#1f77b4;stroke:#ffffff;stroke-width:0.75;" x="141.986506" xlink:href="#m2f71656dab" y="38.994748"/>
     <use style="fill:#1f77b4;stroke:#ffffff;stroke-width:0.75;" x="182.749399" xlink:href="#m2f71656dab" y="39.655308"/>
     <use style="fill:#1f77b4;stroke:#ffffff;stroke-width:0.75;" x="223.512292" xlink:href="#m2f71656dab" y="40.536055"/>
     <use style="fill:#1f77b4;stroke:#ffffff;stroke-width:0.75;" x="264.275186" xlink:href="#m2f71656dab" y="40.315869"/>
     <use style="fill:#1f77b4;stroke:#ffffff;stroke-width:0.75;" x="305.038079" xlink:href="#m2f71656dab" y="43.178295"/>
     <use style="fill:#1f77b4;stroke:#ffffff;stroke-width:0.75;" x="345.800972" xlink:href="#m2f71656dab" y="50.444456"/>
     <use style="fill:#1f77b4;stroke:#ffffff;stroke-width:0.75;" x="386.563866" xlink:href="#m2f71656dab" y="53.967443"/>
     <use style="fill:#1f77b4;stroke:#ffffff;stroke-width:0.75;" x="427.326759" xlink:href="#m2f71656dab" y="60.793231"/>
     <use style="fill:#1f77b4;stroke:#ffffff;stroke-width:0.75;" x="468.089653" xlink:href="#m2f71656dab" y="74.004432"/>
     <use style="fill:#1f77b4;stroke:#ffffff;stroke-width:0.75;" x="508.852546" xlink:href="#m2f71656dab" y="80.389846"/>
     <use style="fill:#1f77b4;stroke:#ffffff;stroke-width:0.75;" x="549.615439" xlink:href="#m2f71656dab" y="107.913182"/>
     <use style="fill:#1f77b4;stroke:#ffffff;stroke-width:0.75;" x="590.378333" xlink:href="#m2f71656dab" y="133.234651"/>
     <use style="fill:#1f77b4;stroke:#ffffff;stroke-width:0.75;" x="631.141226" xlink:href="#m2f71656dab" y="158.115747"/>
     <use style="fill:#1f77b4;stroke:#ffffff;stroke-width:0.75;" x="671.904119" xlink:href="#m2f71656dab" y="203.914578"/>
    </g>
   </g>
   <g id="line2d_17">
    <path clip-path="url(#p189847ad76)" d="M 141.986506 38.994748 
L 182.749399 38.334188 
L 223.512292 40.095682 
L 264.275186 40.756242 
L 305.038079 43.178295 
L 345.800972 53.967443 
L 386.563866 68.499765 
L 427.326759 77.967792 
L 468.089653 95.142354 
L 508.852546 124.427183 
L 549.615439 158.335933 
L 590.378333 215.804659 
L 631.141226 271.952265 
L 671.904119 345.274432 
" style="fill:none;stroke:#1f77b4;stroke-dasharray:12,4.5;stroke-dashoffset:0;stroke-width:3;"/>
    <g clip-path="url(#p189847ad76)">
     <use style="fill:#1f77b4;stroke:#ffffff;stroke-width:0.75;" x="141.986506" xlink:href="#m2f71656dab" y="38.994748"/>
     <use style="fill:#1f77b4;stroke:#ffffff;stroke-width:0.75;" x="182.749399" xlink:href="#m2f71656dab" y="38.334188"/>
     <use style="fill:#1f77b4;stroke:#ffffff;stroke-width:0.75;" x="223.512292" xlink:href="#m2f71656dab" y="40.095682"/>
     <use style="fill:#1f77b4;stroke:#ffffff;stroke-width:0.75;" x="264.275186" xlink:href="#m2f71656dab" y="40.756242"/>
     <use style="fill:#1f77b4;stroke:#ffffff;stroke-width:0.75;" x="305.038079" xlink:href="#m2f71656dab" y="43.178295"/>
     <use style="fill:#1f77b4;stroke:#ffffff;stroke-width:0.75;" x="345.800972" xlink:href="#m2f71656dab" y="53.967443"/>
     <use style="fill:#1f77b4;stroke:#ffffff;stroke-width:0.75;" x="386.563866" xlink:href="#m2f71656dab" y="68.499765"/>
     <use style="fill:#1f77b4;stroke:#ffffff;stroke-width:0.75;" x="427.326759" xlink:href="#m2f71656dab" y="77.967792"/>
     <use style="fill:#1f77b4;stroke:#ffffff;stroke-width:0.75;" x="468.089653" xlink:href="#m2f71656dab" y="95.142354"/>
     <use style="fill:#1f77b4;stroke:#ffffff;stroke-width:0.75;" x="508.852546" xlink:href="#m2f71656dab" y="124.427183"/>
     <use style="fill:#1f77b4;stroke:#ffffff;stroke-width:0.75;" x="549.615439" xlink:href="#m2f71656dab" y="158.335933"/>
     <use style="fill:#1f77b4;stroke:#ffffff;stroke-width:0.75;" x="590.378333" xlink:href="#m2f71656dab" y="215.804659"/>
     <use style="fill:#1f77b4;stroke:#ffffff;stroke-width:0.75;" x="631.141226" xlink:href="#m2f71656dab" y="271.952265"/>
     <use style="fill:#1f77b4;stroke:#ffffff;stroke-width:0.75;" x="671.904119" xlink:href="#m2f71656dab" y="345.274432"/>
    </g>
   </g>
   <g id="line2d_18">
    <path clip-path="url(#p189847ad76)" d="M 141.986506 37.233255 
L 182.749399 37.013068 
L 223.512292 39.435122 
L 264.275186 38.774562 
L 305.038079 41.416802 
L 345.800972 41.857175 
L 386.563866 47.802216 
L 427.326759 49.123336 
L 468.089653 49.343523 
L 508.852546 51.985763 
L 549.615439 57.050057 
L 590.378333 63.435471 
L 631.141226 68.279578 
L 671.904119 77.527419 
" style="fill:none;stroke:#ff7f0e;stroke-linecap:round;stroke-width:3;"/>
    <defs>
     <path d="M 0 3.5 
C 0.928211 3.5 1.81853 3.131218 2.474874 2.474874 
C 3.131218 1.81853 3.5 0.928211 3.5 0 
C 3.5 -0.928211 3.131218 -1.81853 2.474874 -2.474874 
C 1.81853 -3.131218 0.928211 -3.5 0 -3.5 
C -0.928211 -3.5 -1.81853 -3.131218 -2.474874 -2.474874 
C -3.131218 -1.81853 -3.5 -0.928211 -3.5 0 
C -3.5 0.928211 -3.131218 1.81853 -2.474874 2.474874 
C -1.81853 3.131218 -0.928211 3.5 0 3.5 
z
" id="me511f2bb6a" style="stroke:#ffffff;stroke-width:0.75;"/>
    </defs>
    <g clip-path="url(#p189847ad76)">
     <use style="fill:#ff7f0e;stroke:#ffffff;stroke-width:0.75;" x="141.986506" xlink:href="#me511f2bb6a" y="37.233255"/>
     <use style="fill:#ff7f0e;stroke:#ffffff;stroke-width:0.75;" x="182.749399" xlink:href="#me511f2bb6a" y="37.013068"/>
     <use style="fill:#ff7f0e;stroke:#ffffff;stroke-width:0.75;" x="223.512292" xlink:href="#me511f2bb6a" y="39.435122"/>
     <use style="fill:#ff7f0e;stroke:#ffffff;stroke-width:0.75;" x="264.275186" xlink:href="#me511f2bb6a" y="38.774562"/>
     <use style="fill:#ff7f0e;stroke:#ffffff;stroke-width:0.75;" x="305.038079" xlink:href="#me511f2bb6a" y="41.416802"/>
     <use style="fill:#ff7f0e;stroke:#ffffff;stroke-width:0.75;" x="345.800972" xlink:href="#me511f2bb6a" y="41.857175"/>
     <use style="fill:#ff7f0e;stroke:#ffffff;stroke-width:0.75;" x="386.563866" xlink:href="#me511f2bb6a" y="47.802216"/>
     <use style="fill:#ff7f0e;stroke:#ffffff;stroke-width:0.75;" x="427.326759" xlink:href="#me511f2bb6a" y="49.123336"/>
     <use style="fill:#ff7f0e;stroke:#ffffff;stroke-width:0.75;" x="468.089653" xlink:href="#me511f2bb6a" y="49.343523"/>
     <use style="fill:#ff7f0e;stroke:#ffffff;stroke-width:0.75;" x="508.852546" xlink:href="#me511f2bb6a" y="51.985763"/>
     <use style="fill:#ff7f0e;stroke:#ffffff;stroke-width:0.75;" x="549.615439" xlink:href="#me511f2bb6a" y="57.050057"/>
     <use style="fill:#ff7f0e;stroke:#ffffff;stroke-width:0.75;" x="590.378333" xlink:href="#me511f2bb6a" y="63.435471"/>
     <use style="fill:#ff7f0e;stroke:#ffffff;stroke-width:0.75;" x="631.141226" xlink:href="#me511f2bb6a" y="68.279578"/>
     <use style="fill:#ff7f0e;stroke:#ffffff;stroke-width:0.75;" x="671.904119" xlink:href="#me511f2bb6a" y="77.527419"/>
    </g>
   </g>
   <g id="line2d_19">
    <path clip-path="url(#p189847ad76)" d="M 141.986506 38.334188 
L 182.749399 38.114002 
L 223.512292 38.114002 
L 264.275186 40.756242 
L 305.038079 43.618669 
L 345.800972 45.380162 
L 386.563866 46.481096 
L 427.326759 50.004083 
L 468.089653 55.949123 
L 508.852546 65.637338 
L 549.615439 73.784245 
L 590.378333 77.527419 
L 631.141226 88.09638 
L 671.904119 102.848888 
" style="fill:none;stroke:#ff7f0e;stroke-dasharray:12,4.5;stroke-dashoffset:0;stroke-width:3;"/>
    <g clip-path="url(#p189847ad76)">
     <use style="fill:#ff7f0e;stroke:#ffffff;stroke-width:0.75;" x="141.986506" xlink:href="#me511f2bb6a" y="38.334188"/>
     <use style="fill:#ff7f0e;stroke:#ffffff;stroke-width:0.75;" x="182.749399" xlink:href="#me511f2bb6a" y="38.114002"/>
     <use style="fill:#ff7f0e;stroke:#ffffff;stroke-width:0.75;" x="223.512292" xlink:href="#me511f2bb6a" y="38.114002"/>
     <use style="fill:#ff7f0e;stroke:#ffffff;stroke-width:0.75;" x="264.275186" xlink:href="#me511f2bb6a" y="40.756242"/>
     <use style="fill:#ff7f0e;stroke:#ffffff;stroke-width:0.75;" x="305.038079" xlink:href="#me511f2bb6a" y="43.618669"/>
     <use style="fill:#ff7f0e;stroke:#ffffff;stroke-width:0.75;" x="345.800972" xlink:href="#me511f2bb6a" y="45.380162"/>
     <use style="fill:#ff7f0e;stroke:#ffffff;stroke-width:0.75;" x="386.563866" xlink:href="#me511f2bb6a" y="46.481096"/>
     <use style="fill:#ff7f0e;stroke:#ffffff;stroke-width:0.75;" x="427.326759" xlink:href="#me511f2bb6a" y="50.004083"/>
     <use style="fill:#ff7f0e;stroke:#ffffff;stroke-width:0.75;" x="468.089653" xlink:href="#me511f2bb6a" y="55.949123"/>
     <use style="fill:#ff7f0e;stroke:#ffffff;stroke-width:0.75;" x="508.852546" xlink:href="#me511f2bb6a" y="65.637338"/>
     <use style="fill:#ff7f0e;stroke:#ffffff;stroke-width:0.75;" x="549.615439" xlink:href="#me511f2bb6a" y="73.784245"/>
     <use style="fill:#ff7f0e;stroke:#ffffff;stroke-width:0.75;" x="590.378333" xlink:href="#me511f2bb6a" y="77.527419"/>
     <use style="fill:#ff7f0e;stroke:#ffffff;stroke-width:0.75;" x="631.141226" xlink:href="#me511f2bb6a" y="88.09638"/>
     <use style="fill:#ff7f0e;stroke:#ffffff;stroke-width:0.75;" x="671.904119" xlink:href="#me511f2bb6a" y="102.848888"/>
    </g>
   </g>
   <g id="line2d_20"/>
   <g id="line2d_21"/>
   <g id="line2d_22"/>
   <g id="line2d_23"/>
   <g id="patch_3">
    <path d="M 115.490625 360.6875 
L 115.490625 21.6 
" style="fill:none;stroke:#cccccc;stroke-linecap:square;stroke-linejoin:miter;stroke-width:0.8;"/>
   </g>
   <g id="patch_4">
    <path d="M 698.4 360.6875 
L 698.4 21.6 
" style="fill:none;stroke:#cccccc;stroke-linecap:square;stroke-linejoin:miter;stroke-width:0.8;"/>
   </g>
   <g id="patch_5">
    <path d="M 115.490625 360.6875 
L 698.4 360.6875 
" style="fill:none;stroke:#cccccc;stroke-linecap:square;stroke-linejoin:miter;stroke-width:0.8;"/>
   </g>
   <g id="patch_6">
    <path d="M 115.490625 21.6 
L 698.4 21.6 
" style="fill:none;stroke:#cccccc;stroke-linecap:square;stroke-linejoin:miter;stroke-width:0.8;"/>
   </g>
   <g id="legend_1">
    <g id="patch_7">
     <path d="M 129.490625 350.6875 
L 311.565625 350.6875 
Q 315.565625 350.6875 315.565625 346.6875 
L 315.565625 172.55 
Q 315.565625 168.55 311.565625 168.55 
L 129.490625 168.55 
Q 125.490625 168.55 125.490625 172.55 
L 125.490625 346.6875 
Q 125.490625 350.6875 129.490625 350.6875 
z
" style="fill:#ffffff;opacity:0.8;stroke:#cccccc;stroke-linejoin:miter;"/>
    </g>
    <g id="text_18">
     <!-- Layer -->
     <g style="fill:#262626;" transform="translate(189.490625 191.746875)scale(0.2 -0.2)">
      <defs>
       <path d="M 628 4666 
L 1259 4666 
L 1259 531 
L 3531 531 
L 3531 0 
L 628 0 
L 628 4666 
z
" id="DejaVuSans-4c" transform="scale(0.015625)"/>
      </defs>
      <use xlink:href="#DejaVuSans-4c"/>
      <use x="55.712891" xlink:href="#DejaVuSans-61"/>
      <use x="116.992188" xlink:href="#DejaVuSans-79"/>
      <use x="176.171875" xlink:href="#DejaVuSans-65"/>
      <use x="237.695312" xlink:href="#DejaVuSans-72"/>
     </g>
    </g>
    <g id="line2d_24">
     <path d="M 133.490625 214.103125 
L 173.490625 214.103125 
" style="fill:none;stroke:#1f77b4;stroke-linecap:round;stroke-width:3;"/>
    </g>
    <g id="line2d_25"/>
    <g id="text_19">
     <!-- Group 4 -->
     <g style="fill:#262626;" transform="translate(189.490625 221.103125)scale(0.2 -0.2)">
      <defs>
       <path d="M 3809 666 
L 3809 1919 
L 2778 1919 
L 2778 2438 
L 4434 2438 
L 4434 434 
Q 4069 175 3628 42 
Q 3188 -91 2688 -91 
Q 1594 -91 976 548 
Q 359 1188 359 2328 
Q 359 3472 976 4111 
Q 1594 4750 2688 4750 
Q 3144 4750 3555 4637 
Q 3966 4525 4313 4306 
L 4313 3634 
Q 3963 3931 3569 4081 
Q 3175 4231 2741 4231 
Q 1884 4231 1454 3753 
Q 1025 3275 1025 2328 
Q 1025 1384 1454 906 
Q 1884 428 2741 428 
Q 3075 428 3337 486 
Q 3600 544 3809 666 
z
" id="DejaVuSans-47" transform="scale(0.015625)"/>
      </defs>
      <use xlink:href="#DejaVuSans-47"/>
      <use x="77.490234" xlink:href="#DejaVuSans-72"/>
      <use x="116.353516" xlink:href="#DejaVuSans-6f"/>
      <use x="177.535156" xlink:href="#DejaVuSans-75"/>
      <use x="240.914062" xlink:href="#DejaVuSans-70"/>
      <use x="304.390625" xlink:href="#DejaVuSans-20"/>
      <use x="336.177734" xlink:href="#DejaVuSans-34"/>
     </g>
    </g>
    <g id="line2d_26">
     <path d="M 133.490625 243.459375 
L 173.490625 243.459375 
" style="fill:none;stroke:#ff7f0e;stroke-linecap:round;stroke-width:3;"/>
    </g>
    <g id="line2d_27"/>
    <g id="text_20">
     <!-- Group 10 -->
     <g style="fill:#262626;" transform="translate(189.490625 250.459375)scale(0.2 -0.2)">
      <use xlink:href="#DejaVuSans-47"/>
      <use x="77.490234" xlink:href="#DejaVuSans-72"/>
      <use x="116.353516" xlink:href="#DejaVuSans-6f"/>
      <use x="177.535156" xlink:href="#DejaVuSans-75"/>
      <use x="240.914062" xlink:href="#DejaVuSans-70"/>
      <use x="304.390625" xlink:href="#DejaVuSans-20"/>
      <use x="336.177734" xlink:href="#DejaVuSans-31"/>
      <use x="399.800781" xlink:href="#DejaVuSans-30"/>
     </g>
    </g>
    <g id="text_21">
     <!-- Type -->
     <g style="fill:#262626;" transform="translate(189.490625 279.815625)scale(0.2 -0.2)">
      <defs>
       <path d="M -19 4666 
L 3928 4666 
L 3928 4134 
L 2272 4134 
L 2272 0 
L 1638 0 
L 1638 4134 
L -19 4134 
L -19 4666 
z
" id="DejaVuSans-54" transform="scale(0.015625)"/>
      </defs>
      <use xlink:href="#DejaVuSans-54"/>
      <use x="45.458984" xlink:href="#DejaVuSans-79"/>
      <use x="104.638672" xlink:href="#DejaVuSans-70"/>
      <use x="168.115234" xlink:href="#DejaVuSans-65"/>
     </g>
    </g>
    <g id="line2d_28">
     <path d="M 133.490625 302.171875 
L 173.490625 302.171875 
" style="fill:none;stroke:#333333;stroke-linecap:round;stroke-width:3;"/>
    </g>
    <g id="line2d_29"/>
    <g id="text_22">
     <!-- Intra-Fusion -->
     <g style="fill:#262626;" transform="translate(189.490625 309.171875)scale(0.2 -0.2)">
      <defs>
       <path d="M 628 4666 
L 1259 4666 
L 1259 0 
L 628 0 
L 628 4666 
z
" id="DejaVuSans-49" transform="scale(0.015625)"/>
       <path d="M 313 2009 
L 1997 2009 
L 1997 1497 
L 313 1497 
L 313 2009 
z
" id="DejaVuSans-2d" transform="scale(0.015625)"/>
       <path d="M 628 4666 
L 3309 4666 
L 3309 4134 
L 1259 4134 
L 1259 2759 
L 3109 2759 
L 3109 2228 
L 1259 2228 
L 1259 0 
L 628 0 
L 628 4666 
z
" id="DejaVuSans-46" transform="scale(0.015625)"/>
      </defs>
      <use xlink:href="#DejaVuSans-49"/>
      <use x="29.492188" xlink:href="#DejaVuSans-6e"/>
      <use x="92.871094" xlink:href="#DejaVuSans-74"/>
      <use x="132.080078" xlink:href="#DejaVuSans-72"/>
      <use x="173.193359" xlink:href="#DejaVuSans-61"/>
      <use x="234.472656" xlink:href="#DejaVuSans-2d"/>
      <use x="270.556641" xlink:href="#DejaVuSans-46"/>
      <use x="322.576172" xlink:href="#DejaVuSans-75"/>
      <use x="385.955078" xlink:href="#DejaVuSans-73"/>
      <use x="438.054688" xlink:href="#DejaVuSans-69"/>
      <use x="465.837891" xlink:href="#DejaVuSans-6f"/>
      <use x="527.019531" xlink:href="#DejaVuSans-6e"/>
     </g>
    </g>
    <g id="line2d_30">
     <path d="M 133.490625 331.528125 
L 173.490625 331.528125 
" style="fill:none;stroke:#333333;stroke-dasharray:12,4.5;stroke-dashoffset:0;stroke-width:3;"/>
    </g>
    <g id="line2d_31"/>
    <g id="text_23">
     <!-- Default -->
     <g style="fill:#262626;" transform="translate(189.490625 338.528125)scale(0.2 -0.2)">
      <defs>
       <path d="M 1259 4147 
L 1259 519 
L 2022 519 
Q 2988 519 3436 956 
Q 3884 1394 3884 2338 
Q 3884 3275 3436 3711 
Q 2988 4147 2022 4147 
L 1259 4147 
z
M 628 4666 
L 1925 4666 
Q 3281 4666 3915 4102 
Q 4550 3538 4550 2338 
Q 4550 1131 3912 565 
Q 3275 0 1925 0 
L 628 0 
L 628 4666 
z
" id="DejaVuSans-44" transform="scale(0.015625)"/>
       <path d="M 2375 4863 
L 2375 4384 
L 1825 4384 
Q 1516 4384 1395 4259 
Q 1275 4134 1275 3809 
L 1275 3500 
L 2222 3500 
L 2222 3053 
L 1275 3053 
L 1275 0 
L 697 0 
L 697 3053 
L 147 3053 
L 147 3500 
L 697 3500 
L 697 3744 
Q 697 4328 969 4595 
Q 1241 4863 1831 4863 
L 2375 4863 
z
" id="DejaVuSans-66" transform="scale(0.015625)"/>
       <path d="M 603 4863 
L 1178 4863 
L 1178 0 
L 603 0 
L 603 4863 
z
" id="DejaVuSans-6c" transform="scale(0.015625)"/>
      </defs>
      <use xlink:href="#DejaVuSans-44"/>
      <use x="77.001953" xlink:href="#DejaVuSans-65"/>
      <use x="138.525391" xlink:href="#DejaVuSans-66"/>
      <use x="173.730469" xlink:href="#DejaVuSans-61"/>
      <use x="235.009766" xlink:href="#DejaVuSans-75"/>
      <use x="298.388672" xlink:href="#DejaVuSans-6c"/>
      <use x="326.171875" xlink:href="#DejaVuSans-74"/>
     </g>
    </g>
   </g>
  </g>
 </g>
 <defs>
  <clipPath id="p189847ad76">
   <rect height="339.0875" width="582.909375" x="115.490625" y="21.6"/>
  </clipPath>
 </defs>
</svg>
