<?xml version="1.0" encoding="utf-8" standalone="no"?>
<!DOCTYPE svg PUBLIC "-//W3C//DTD SVG 1.1//EN"
  "http://www.w3.org/Graphics/SVG/1.1/DTD/svg11.dtd">
<svg height="432pt" version="1.1" viewBox="0 0 720 432" width="720pt" xmlns="http://www.w3.org/2000/svg" xmlns:xlink="http://www.w3.org/1999/xlink">
 <metadata>
  <rdf:RDF xmlns:cc="http://creativecommons.org/ns#" xmlns:dc="http://purl.org/dc/elements/1.1/" xmlns:rdf="http://www.w3.org/1999/02/22-rdf-syntax-ns#">
   <cc:Work>
    <dc:type rdf:resource="http://purl.org/dc/dcmitype/StillImage"/>
    <dc:date>2023-05-09T17:07:43.416294</dc:date>
    <dc:format>image/svg+xml</dc:format>
    <dc:creator>
     <cc:Agent>
      <dc:title>Matplotlib v3.4.3, https://matplotlib.org/</dc:title>
     </cc:Agent>
    </dc:creator>
   </cc:Work>
  </rdf:RDF>
 </metadata>
 <defs>
  <style type="text/css">*{stroke-linecap:butt;stroke-linejoin:round;}</style>
 </defs>
 <g id="figure_1">
  <g id="patch_1">
   <path d="M 0 432 
L 720 432 
L 720 0 
L 0 0 
z
" style="fill:#ffffff;"/>
  </g>
  <g id="axes_1">
   <g id="patch_2">
    <path d="M 132.25 360.6875 
L 698.4 360.6875 
L 698.4 21.6 
L 132.25 21.6 
z
" style="fill:#ffffff;"/>
   </g>
   <g id="matplotlib.axis_1">
    <g id="xtick_1">
     <g id="line2d_1">
      <path clip-path="url(#p5dd75fe8be)" d="M 192.296212 360.6875 
L 192.296212 21.6 
" style="fill:none;stroke:#cccccc;stroke-linecap:round;stroke-width:0.8;"/>
     </g>
     <g id="text_1">
      <!-- 10% -->
      <g style="fill:#262626;" transform="translate(170.06965 382.884375)scale(0.2 -0.2)">
       <defs>
        <path d="M 794 531 
L 1825 531 
L 1825 4091 
L 703 3866 
L 703 4441 
L 1819 4666 
L 2450 4666 
L 2450 531 
L 3481 531 
L 3481 0 
L 794 0 
L 794 531 
z
" id="DejaVuSans-31" transform="scale(0.015625)"/>
        <path d="M 2034 4250 
Q 1547 4250 1301 3770 
Q 1056 3291 1056 2328 
Q 1056 1369 1301 889 
Q 1547 409 2034 409 
Q 2525 409 2770 889 
Q 3016 1369 3016 2328 
Q 3016 3291 2770 3770 
Q 2525 4250 2034 4250 
z
M 2034 4750 
Q 2819 4750 3233 4129 
Q 3647 3509 3647 2328 
Q 3647 1150 3233 529 
Q 2819 -91 2034 -91 
Q 1250 -91 836 529 
Q 422 1150 422 2328 
Q 422 3509 836 4129 
Q 1250 4750 2034 4750 
z
" id="DejaVuSans-30" transform="scale(0.015625)"/>
        <path d="M 4653 2053 
Q 4381 2053 4226 1822 
Q 4072 1591 4072 1178 
Q 4072 772 4226 539 
Q 4381 306 4653 306 
Q 4919 306 5073 539 
Q 5228 772 5228 1178 
Q 5228 1588 5073 1820 
Q 4919 2053 4653 2053 
z
M 4653 2450 
Q 5147 2450 5437 2106 
Q 5728 1763 5728 1178 
Q 5728 594 5436 251 
Q 5144 -91 4653 -91 
Q 4153 -91 3862 251 
Q 3572 594 3572 1178 
Q 3572 1766 3864 2108 
Q 4156 2450 4653 2450 
z
M 1428 4353 
Q 1159 4353 1004 4120 
Q 850 3888 850 3481 
Q 850 3069 1003 2837 
Q 1156 2606 1428 2606 
Q 1700 2606 1854 2837 
Q 2009 3069 2009 3481 
Q 2009 3884 1853 4118 
Q 1697 4353 1428 4353 
z
M 4250 4750 
L 4750 4750 
L 1831 -91 
L 1331 -91 
L 4250 4750 
z
M 1428 4750 
Q 1922 4750 2215 4408 
Q 2509 4066 2509 3481 
Q 2509 2891 2217 2550 
Q 1925 2209 1428 2209 
Q 931 2209 642 2551 
Q 353 2894 353 3481 
Q 353 4063 643 4406 
Q 934 4750 1428 4750 
z
" id="DejaVuSans-25" transform="scale(0.015625)"/>
       </defs>
       <use xlink:href="#DejaVuSans-31"/>
       <use x="63.623047" xlink:href="#DejaVuSans-30"/>
       <use x="127.246094" xlink:href="#DejaVuSans-25"/>
      </g>
     </g>
    </g>
    <g id="xtick_2">
     <g id="line2d_2">
      <path clip-path="url(#p5dd75fe8be)" d="M 260.920455 360.6875 
L 260.920455 21.6 
" style="fill:none;stroke:#cccccc;stroke-linecap:round;stroke-width:0.8;"/>
     </g>
     <g id="text_2">
      <!-- 20% -->
      <g style="fill:#262626;" transform="translate(238.693892 382.884375)scale(0.2 -0.2)">
       <defs>
        <path d="M 1228 531 
L 3431 531 
L 3431 0 
L 469 0 
L 469 531 
Q 828 903 1448 1529 
Q 2069 2156 2228 2338 
Q 2531 2678 2651 2914 
Q 2772 3150 2772 3378 
Q 2772 3750 2511 3984 
Q 2250 4219 1831 4219 
Q 1534 4219 1204 4116 
Q 875 4013 500 3803 
L 500 4441 
Q 881 4594 1212 4672 
Q 1544 4750 1819 4750 
Q 2544 4750 2975 4387 
Q 3406 4025 3406 3419 
Q 3406 3131 3298 2873 
Q 3191 2616 2906 2266 
Q 2828 2175 2409 1742 
Q 1991 1309 1228 531 
z
" id="DejaVuSans-32" transform="scale(0.015625)"/>
       </defs>
       <use xlink:href="#DejaVuSans-32"/>
       <use x="63.623047" xlink:href="#DejaVuSans-30"/>
       <use x="127.246094" xlink:href="#DejaVuSans-25"/>
      </g>
     </g>
    </g>
    <g id="xtick_3">
     <g id="line2d_3">
      <path clip-path="url(#p5dd75fe8be)" d="M 329.544697 360.6875 
L 329.544697 21.6 
" style="fill:none;stroke:#cccccc;stroke-linecap:round;stroke-width:0.8;"/>
     </g>
     <g id="text_3">
      <!-- 30% -->
      <g style="fill:#262626;" transform="translate(307.318134 382.884375)scale(0.2 -0.2)">
       <defs>
        <path d="M 2597 2516 
Q 3050 2419 3304 2112 
Q 3559 1806 3559 1356 
Q 3559 666 3084 287 
Q 2609 -91 1734 -91 
Q 1441 -91 1130 -33 
Q 819 25 488 141 
L 488 750 
Q 750 597 1062 519 
Q 1375 441 1716 441 
Q 2309 441 2620 675 
Q 2931 909 2931 1356 
Q 2931 1769 2642 2001 
Q 2353 2234 1838 2234 
L 1294 2234 
L 1294 2753 
L 1863 2753 
Q 2328 2753 2575 2939 
Q 2822 3125 2822 3475 
Q 2822 3834 2567 4026 
Q 2313 4219 1838 4219 
Q 1578 4219 1281 4162 
Q 984 4106 628 3988 
L 628 4550 
Q 988 4650 1302 4700 
Q 1616 4750 1894 4750 
Q 2613 4750 3031 4423 
Q 3450 4097 3450 3541 
Q 3450 3153 3228 2886 
Q 3006 2619 2597 2516 
z
" id="DejaVuSans-33" transform="scale(0.015625)"/>
       </defs>
       <use xlink:href="#DejaVuSans-33"/>
       <use x="63.623047" xlink:href="#DejaVuSans-30"/>
       <use x="127.246094" xlink:href="#DejaVuSans-25"/>
      </g>
     </g>
    </g>
    <g id="xtick_4">
     <g id="line2d_4">
      <path clip-path="url(#p5dd75fe8be)" d="M 398.168939 360.6875 
L 398.168939 21.6 
" style="fill:none;stroke:#cccccc;stroke-linecap:round;stroke-width:0.8;"/>
     </g>
     <g id="text_4">
      <!-- 40% -->
      <g style="fill:#262626;" transform="translate(375.942377 382.884375)scale(0.2 -0.2)">
       <defs>
        <path d="M 2419 4116 
L 825 1625 
L 2419 1625 
L 2419 4116 
z
M 2253 4666 
L 3047 4666 
L 3047 1625 
L 3713 1625 
L 3713 1100 
L 3047 1100 
L 3047 0 
L 2419 0 
L 2419 1100 
L 313 1100 
L 313 1709 
L 2253 4666 
z
" id="DejaVuSans-34" transform="scale(0.015625)"/>
       </defs>
       <use xlink:href="#DejaVuSans-34"/>
       <use x="63.623047" xlink:href="#DejaVuSans-30"/>
       <use x="127.246094" xlink:href="#DejaVuSans-25"/>
      </g>
     </g>
    </g>
    <g id="xtick_5">
     <g id="line2d_5">
      <path clip-path="url(#p5dd75fe8be)" d="M 466.793182 360.6875 
L 466.793182 21.6 
" style="fill:none;stroke:#cccccc;stroke-linecap:round;stroke-width:0.8;"/>
     </g>
     <g id="text_5">
      <!-- 50% -->
      <g style="fill:#262626;" transform="translate(444.566619 382.884375)scale(0.2 -0.2)">
       <defs>
        <path d="M 691 4666 
L 3169 4666 
L 3169 4134 
L 1269 4134 
L 1269 2991 
Q 1406 3038 1543 3061 
Q 1681 3084 1819 3084 
Q 2600 3084 3056 2656 
Q 3513 2228 3513 1497 
Q 3513 744 3044 326 
Q 2575 -91 1722 -91 
Q 1428 -91 1123 -41 
Q 819 9 494 109 
L 494 744 
Q 775 591 1075 516 
Q 1375 441 1709 441 
Q 2250 441 2565 725 
Q 2881 1009 2881 1497 
Q 2881 1984 2565 2268 
Q 2250 2553 1709 2553 
Q 1456 2553 1204 2497 
Q 953 2441 691 2322 
L 691 4666 
z
" id="DejaVuSans-35" transform="scale(0.015625)"/>
       </defs>
       <use xlink:href="#DejaVuSans-35"/>
       <use x="63.623047" xlink:href="#DejaVuSans-30"/>
       <use x="127.246094" xlink:href="#DejaVuSans-25"/>
      </g>
     </g>
    </g>
    <g id="xtick_6">
     <g id="line2d_6">
      <path clip-path="url(#p5dd75fe8be)" d="M 535.417424 360.6875 
L 535.417424 21.6 
" style="fill:none;stroke:#cccccc;stroke-linecap:round;stroke-width:0.8;"/>
     </g>
     <g id="text_6">
      <!-- 60% -->
      <g style="fill:#262626;" transform="translate(513.190862 382.884375)scale(0.2 -0.2)">
       <defs>
        <path d="M 2113 2584 
Q 1688 2584 1439 2293 
Q 1191 2003 1191 1497 
Q 1191 994 1439 701 
Q 1688 409 2113 409 
Q 2538 409 2786 701 
Q 3034 994 3034 1497 
Q 3034 2003 2786 2293 
Q 2538 2584 2113 2584 
z
M 3366 4563 
L 3366 3988 
Q 3128 4100 2886 4159 
Q 2644 4219 2406 4219 
Q 1781 4219 1451 3797 
Q 1122 3375 1075 2522 
Q 1259 2794 1537 2939 
Q 1816 3084 2150 3084 
Q 2853 3084 3261 2657 
Q 3669 2231 3669 1497 
Q 3669 778 3244 343 
Q 2819 -91 2113 -91 
Q 1303 -91 875 529 
Q 447 1150 447 2328 
Q 447 3434 972 4092 
Q 1497 4750 2381 4750 
Q 2619 4750 2861 4703 
Q 3103 4656 3366 4563 
z
" id="DejaVuSans-36" transform="scale(0.015625)"/>
       </defs>
       <use xlink:href="#DejaVuSans-36"/>
       <use x="63.623047" xlink:href="#DejaVuSans-30"/>
       <use x="127.246094" xlink:href="#DejaVuSans-25"/>
      </g>
     </g>
    </g>
    <g id="xtick_7">
     <g id="line2d_7">
      <path clip-path="url(#p5dd75fe8be)" d="M 604.041667 360.6875 
L 604.041667 21.6 
" style="fill:none;stroke:#cccccc;stroke-linecap:round;stroke-width:0.8;"/>
     </g>
     <g id="text_7">
      <!-- 70% -->
      <g style="fill:#262626;" transform="translate(581.815104 382.884375)scale(0.2 -0.2)">
       <defs>
        <path d="M 525 4666 
L 3525 4666 
L 3525 4397 
L 1831 0 
L 1172 0 
L 2766 4134 
L 525 4134 
L 525 4666 
z
" id="DejaVuSans-37" transform="scale(0.015625)"/>
       </defs>
       <use xlink:href="#DejaVuSans-37"/>
       <use x="63.623047" xlink:href="#DejaVuSans-30"/>
       <use x="127.246094" xlink:href="#DejaVuSans-25"/>
      </g>
     </g>
    </g>
    <g id="xtick_8">
     <g id="line2d_8">
      <path clip-path="url(#p5dd75fe8be)" d="M 672.665909 360.6875 
L 672.665909 21.6 
" style="fill:none;stroke:#cccccc;stroke-linecap:round;stroke-width:0.8;"/>
     </g>
     <g id="text_8">
      <!-- 80% -->
      <g style="fill:#262626;" transform="translate(650.439347 382.884375)scale(0.2 -0.2)">
       <defs>
        <path d="M 2034 2216 
Q 1584 2216 1326 1975 
Q 1069 1734 1069 1313 
Q 1069 891 1326 650 
Q 1584 409 2034 409 
Q 2484 409 2743 651 
Q 3003 894 3003 1313 
Q 3003 1734 2745 1975 
Q 2488 2216 2034 2216 
z
M 1403 2484 
Q 997 2584 770 2862 
Q 544 3141 544 3541 
Q 544 4100 942 4425 
Q 1341 4750 2034 4750 
Q 2731 4750 3128 4425 
Q 3525 4100 3525 3541 
Q 3525 3141 3298 2862 
Q 3072 2584 2669 2484 
Q 3125 2378 3379 2068 
Q 3634 1759 3634 1313 
Q 3634 634 3220 271 
Q 2806 -91 2034 -91 
Q 1263 -91 848 271 
Q 434 634 434 1313 
Q 434 1759 690 2068 
Q 947 2378 1403 2484 
z
M 1172 3481 
Q 1172 3119 1398 2916 
Q 1625 2713 2034 2713 
Q 2441 2713 2670 2916 
Q 2900 3119 2900 3481 
Q 2900 3844 2670 4047 
Q 2441 4250 2034 4250 
Q 1625 4250 1398 4047 
Q 1172 3844 1172 3481 
z
" id="DejaVuSans-38" transform="scale(0.015625)"/>
       </defs>
       <use xlink:href="#DejaVuSans-38"/>
       <use x="63.623047" xlink:href="#DejaVuSans-30"/>
       <use x="127.246094" xlink:href="#DejaVuSans-25"/>
      </g>
     </g>
    </g>
    <g id="text_9">
     <!-- Neuron Sparsity -->
     <g style="fill:#262626;" transform="translate(335.070312 406.240625)scale(0.2 -0.2)">
      <defs>
       <path d="M 628 4666 
L 1478 4666 
L 3547 763 
L 3547 4666 
L 4159 4666 
L 4159 0 
L 3309 0 
L 1241 3903 
L 1241 0 
L 628 0 
L 628 4666 
z
" id="DejaVuSans-4e" transform="scale(0.015625)"/>
       <path d="M 3597 1894 
L 3597 1613 
L 953 1613 
Q 991 1019 1311 708 
Q 1631 397 2203 397 
Q 2534 397 2845 478 
Q 3156 559 3463 722 
L 3463 178 
Q 3153 47 2828 -22 
Q 2503 -91 2169 -91 
Q 1331 -91 842 396 
Q 353 884 353 1716 
Q 353 2575 817 3079 
Q 1281 3584 2069 3584 
Q 2775 3584 3186 3129 
Q 3597 2675 3597 1894 
z
M 3022 2063 
Q 3016 2534 2758 2815 
Q 2500 3097 2075 3097 
Q 1594 3097 1305 2825 
Q 1016 2553 972 2059 
L 3022 2063 
z
" id="DejaVuSans-65" transform="scale(0.015625)"/>
       <path d="M 544 1381 
L 544 3500 
L 1119 3500 
L 1119 1403 
Q 1119 906 1312 657 
Q 1506 409 1894 409 
Q 2359 409 2629 706 
Q 2900 1003 2900 1516 
L 2900 3500 
L 3475 3500 
L 3475 0 
L 2900 0 
L 2900 538 
Q 2691 219 2414 64 
Q 2138 -91 1772 -91 
Q 1169 -91 856 284 
Q 544 659 544 1381 
z
M 1991 3584 
L 1991 3584 
z
" id="DejaVuSans-75" transform="scale(0.015625)"/>
       <path d="M 2631 2963 
Q 2534 3019 2420 3045 
Q 2306 3072 2169 3072 
Q 1681 3072 1420 2755 
Q 1159 2438 1159 1844 
L 1159 0 
L 581 0 
L 581 3500 
L 1159 3500 
L 1159 2956 
Q 1341 3275 1631 3429 
Q 1922 3584 2338 3584 
Q 2397 3584 2469 3576 
Q 2541 3569 2628 3553 
L 2631 2963 
z
" id="DejaVuSans-72" transform="scale(0.015625)"/>
       <path d="M 1959 3097 
Q 1497 3097 1228 2736 
Q 959 2375 959 1747 
Q 959 1119 1226 758 
Q 1494 397 1959 397 
Q 2419 397 2687 759 
Q 2956 1122 2956 1747 
Q 2956 2369 2687 2733 
Q 2419 3097 1959 3097 
z
M 1959 3584 
Q 2709 3584 3137 3096 
Q 3566 2609 3566 1747 
Q 3566 888 3137 398 
Q 2709 -91 1959 -91 
Q 1206 -91 779 398 
Q 353 888 353 1747 
Q 353 2609 779 3096 
Q 1206 3584 1959 3584 
z
" id="DejaVuSans-6f" transform="scale(0.015625)"/>
       <path d="M 3513 2113 
L 3513 0 
L 2938 0 
L 2938 2094 
Q 2938 2591 2744 2837 
Q 2550 3084 2163 3084 
Q 1697 3084 1428 2787 
Q 1159 2491 1159 1978 
L 1159 0 
L 581 0 
L 581 3500 
L 1159 3500 
L 1159 2956 
Q 1366 3272 1645 3428 
Q 1925 3584 2291 3584 
Q 2894 3584 3203 3211 
Q 3513 2838 3513 2113 
z
" id="DejaVuSans-6e" transform="scale(0.015625)"/>
       <path id="DejaVuSans-20" transform="scale(0.015625)"/>
       <path d="M 3425 4513 
L 3425 3897 
Q 3066 4069 2747 4153 
Q 2428 4238 2131 4238 
Q 1616 4238 1336 4038 
Q 1056 3838 1056 3469 
Q 1056 3159 1242 3001 
Q 1428 2844 1947 2747 
L 2328 2669 
Q 3034 2534 3370 2195 
Q 3706 1856 3706 1288 
Q 3706 609 3251 259 
Q 2797 -91 1919 -91 
Q 1588 -91 1214 -16 
Q 841 59 441 206 
L 441 856 
Q 825 641 1194 531 
Q 1563 422 1919 422 
Q 2459 422 2753 634 
Q 3047 847 3047 1241 
Q 3047 1584 2836 1778 
Q 2625 1972 2144 2069 
L 1759 2144 
Q 1053 2284 737 2584 
Q 422 2884 422 3419 
Q 422 4038 858 4394 
Q 1294 4750 2059 4750 
Q 2388 4750 2728 4690 
Q 3069 4631 3425 4513 
z
" id="DejaVuSans-53" transform="scale(0.015625)"/>
       <path d="M 1159 525 
L 1159 -1331 
L 581 -1331 
L 581 3500 
L 1159 3500 
L 1159 2969 
Q 1341 3281 1617 3432 
Q 1894 3584 2278 3584 
Q 2916 3584 3314 3078 
Q 3713 2572 3713 1747 
Q 3713 922 3314 415 
Q 2916 -91 2278 -91 
Q 1894 -91 1617 61 
Q 1341 213 1159 525 
z
M 3116 1747 
Q 3116 2381 2855 2742 
Q 2594 3103 2138 3103 
Q 1681 3103 1420 2742 
Q 1159 2381 1159 1747 
Q 1159 1113 1420 752 
Q 1681 391 2138 391 
Q 2594 391 2855 752 
Q 3116 1113 3116 1747 
z
" id="DejaVuSans-70" transform="scale(0.015625)"/>
       <path d="M 2194 1759 
Q 1497 1759 1228 1600 
Q 959 1441 959 1056 
Q 959 750 1161 570 
Q 1363 391 1709 391 
Q 2188 391 2477 730 
Q 2766 1069 2766 1631 
L 2766 1759 
L 2194 1759 
z
M 3341 1997 
L 3341 0 
L 2766 0 
L 2766 531 
Q 2569 213 2275 61 
Q 1981 -91 1556 -91 
Q 1019 -91 701 211 
Q 384 513 384 1019 
Q 384 1609 779 1909 
Q 1175 2209 1959 2209 
L 2766 2209 
L 2766 2266 
Q 2766 2663 2505 2880 
Q 2244 3097 1772 3097 
Q 1472 3097 1187 3025 
Q 903 2953 641 2809 
L 641 3341 
Q 956 3463 1253 3523 
Q 1550 3584 1831 3584 
Q 2591 3584 2966 3190 
Q 3341 2797 3341 1997 
z
" id="DejaVuSans-61" transform="scale(0.015625)"/>
       <path d="M 2834 3397 
L 2834 2853 
Q 2591 2978 2328 3040 
Q 2066 3103 1784 3103 
Q 1356 3103 1142 2972 
Q 928 2841 928 2578 
Q 928 2378 1081 2264 
Q 1234 2150 1697 2047 
L 1894 2003 
Q 2506 1872 2764 1633 
Q 3022 1394 3022 966 
Q 3022 478 2636 193 
Q 2250 -91 1575 -91 
Q 1294 -91 989 -36 
Q 684 19 347 128 
L 347 722 
Q 666 556 975 473 
Q 1284 391 1588 391 
Q 1994 391 2212 530 
Q 2431 669 2431 922 
Q 2431 1156 2273 1281 
Q 2116 1406 1581 1522 
L 1381 1569 
Q 847 1681 609 1914 
Q 372 2147 372 2553 
Q 372 3047 722 3315 
Q 1072 3584 1716 3584 
Q 2034 3584 2315 3537 
Q 2597 3491 2834 3397 
z
" id="DejaVuSans-73" transform="scale(0.015625)"/>
       <path d="M 603 3500 
L 1178 3500 
L 1178 0 
L 603 0 
L 603 3500 
z
M 603 4863 
L 1178 4863 
L 1178 4134 
L 603 4134 
L 603 4863 
z
" id="DejaVuSans-69" transform="scale(0.015625)"/>
       <path d="M 1172 4494 
L 1172 3500 
L 2356 3500 
L 2356 3053 
L 1172 3053 
L 1172 1153 
Q 1172 725 1289 603 
Q 1406 481 1766 481 
L 2356 481 
L 2356 0 
L 1766 0 
Q 1100 0 847 248 
Q 594 497 594 1153 
L 594 3053 
L 172 3053 
L 172 3500 
L 594 3500 
L 594 4494 
L 1172 4494 
z
" id="DejaVuSans-74" transform="scale(0.015625)"/>
       <path d="M 2059 -325 
Q 1816 -950 1584 -1140 
Q 1353 -1331 966 -1331 
L 506 -1331 
L 506 -850 
L 844 -850 
Q 1081 -850 1212 -737 
Q 1344 -625 1503 -206 
L 1606 56 
L 191 3500 
L 800 3500 
L 1894 763 
L 2988 3500 
L 3597 3500 
L 2059 -325 
z
" id="DejaVuSans-79" transform="scale(0.015625)"/>
      </defs>
      <use xlink:href="#DejaVuSans-4e"/>
      <use x="74.804688" xlink:href="#DejaVuSans-65"/>
      <use x="136.328125" xlink:href="#DejaVuSans-75"/>
      <use x="199.707031" xlink:href="#DejaVuSans-72"/>
      <use x="238.570312" xlink:href="#DejaVuSans-6f"/>
      <use x="299.751953" xlink:href="#DejaVuSans-6e"/>
      <use x="363.130859" xlink:href="#DejaVuSans-20"/>
      <use x="394.917969" xlink:href="#DejaVuSans-53"/>
      <use x="458.394531" xlink:href="#DejaVuSans-70"/>
      <use x="521.871094" xlink:href="#DejaVuSans-61"/>
      <use x="583.150391" xlink:href="#DejaVuSans-72"/>
      <use x="624.263672" xlink:href="#DejaVuSans-73"/>
      <use x="676.363281" xlink:href="#DejaVuSans-69"/>
      <use x="704.146484" xlink:href="#DejaVuSans-74"/>
      <use x="743.355469" xlink:href="#DejaVuSans-79"/>
     </g>
    </g>
   </g>
   <g id="matplotlib.axis_2">
    <g id="ytick_1">
     <g id="line2d_9">
      <path clip-path="url(#p5dd75fe8be)" d="M 132.25 343.586253 
L 698.4 343.586253 
" style="fill:none;stroke:#cccccc;stroke-linecap:round;stroke-width:0.8;"/>
     </g>
     <g id="text_10">
      <!-- +0.0% -->
      <g style="fill:#262626;" transform="translate(57.68125 351.184691)scale(0.2 -0.2)">
       <defs>
        <path d="M 2944 4013 
L 2944 2272 
L 4684 2272 
L 4684 1741 
L 2944 1741 
L 2944 0 
L 2419 0 
L 2419 1741 
L 678 1741 
L 678 2272 
L 2419 2272 
L 2419 4013 
L 2944 4013 
z
" id="DejaVuSans-2b" transform="scale(0.015625)"/>
        <path d="M 684 794 
L 1344 794 
L 1344 0 
L 684 0 
L 684 794 
z
" id="DejaVuSans-2e" transform="scale(0.015625)"/>
       </defs>
       <use xlink:href="#DejaVuSans-2b"/>
       <use x="83.789062" xlink:href="#DejaVuSans-30"/>
       <use x="147.412109" xlink:href="#DejaVuSans-2e"/>
       <use x="179.199219" xlink:href="#DejaVuSans-30"/>
       <use x="242.822266" xlink:href="#DejaVuSans-25"/>
      </g>
     </g>
    </g>
    <g id="ytick_2">
     <g id="line2d_10">
      <path clip-path="url(#p5dd75fe8be)" d="M 132.25 286.683389 
L 698.4 286.683389 
" style="fill:none;stroke:#cccccc;stroke-linecap:round;stroke-width:0.8;"/>
     </g>
     <g id="text_11">
      <!-- +5.0% -->
      <g style="fill:#262626;" transform="translate(57.68125 294.281827)scale(0.2 -0.2)">
       <use xlink:href="#DejaVuSans-2b"/>
       <use x="83.789062" xlink:href="#DejaVuSans-35"/>
       <use x="147.412109" xlink:href="#DejaVuSans-2e"/>
       <use x="179.199219" xlink:href="#DejaVuSans-30"/>
       <use x="242.822266" xlink:href="#DejaVuSans-25"/>
      </g>
     </g>
    </g>
    <g id="ytick_3">
     <g id="line2d_11">
      <path clip-path="url(#p5dd75fe8be)" d="M 132.25 229.780525 
L 698.4 229.780525 
" style="fill:none;stroke:#cccccc;stroke-linecap:round;stroke-width:0.8;"/>
     </g>
     <g id="text_12">
      <!-- +10.0% -->
      <g style="fill:#262626;" transform="translate(44.95625 237.378962)scale(0.2 -0.2)">
       <use xlink:href="#DejaVuSans-2b"/>
       <use x="83.789062" xlink:href="#DejaVuSans-31"/>
       <use x="147.412109" xlink:href="#DejaVuSans-30"/>
       <use x="211.035156" xlink:href="#DejaVuSans-2e"/>
       <use x="242.822266" xlink:href="#DejaVuSans-30"/>
       <use x="306.445312" xlink:href="#DejaVuSans-25"/>
      </g>
     </g>
    </g>
    <g id="ytick_4">
     <g id="line2d_12">
      <path clip-path="url(#p5dd75fe8be)" d="M 132.25 172.87766 
L 698.4 172.87766 
" style="fill:none;stroke:#cccccc;stroke-linecap:round;stroke-width:0.8;"/>
     </g>
     <g id="text_13">
      <!-- +15.0% -->
      <g style="fill:#262626;" transform="translate(44.95625 180.476098)scale(0.2 -0.2)">
       <use xlink:href="#DejaVuSans-2b"/>
       <use x="83.789062" xlink:href="#DejaVuSans-31"/>
       <use x="147.412109" xlink:href="#DejaVuSans-35"/>
       <use x="211.035156" xlink:href="#DejaVuSans-2e"/>
       <use x="242.822266" xlink:href="#DejaVuSans-30"/>
       <use x="306.445312" xlink:href="#DejaVuSans-25"/>
      </g>
     </g>
    </g>
    <g id="ytick_5">
     <g id="line2d_13">
      <path clip-path="url(#p5dd75fe8be)" d="M 132.25 115.974796 
L 698.4 115.974796 
" style="fill:none;stroke:#cccccc;stroke-linecap:round;stroke-width:0.8;"/>
     </g>
     <g id="text_14">
      <!-- +20.0% -->
      <g style="fill:#262626;" transform="translate(44.95625 123.573234)scale(0.2 -0.2)">
       <use xlink:href="#DejaVuSans-2b"/>
       <use x="83.789062" xlink:href="#DejaVuSans-32"/>
       <use x="147.412109" xlink:href="#DejaVuSans-30"/>
       <use x="211.035156" xlink:href="#DejaVuSans-2e"/>
       <use x="242.822266" xlink:href="#DejaVuSans-30"/>
       <use x="306.445312" xlink:href="#DejaVuSans-25"/>
      </g>
     </g>
    </g>
    <g id="ytick_6">
     <g id="line2d_14">
      <path clip-path="url(#p5dd75fe8be)" d="M 132.25 59.071932 
L 698.4 59.071932 
" style="fill:none;stroke:#cccccc;stroke-linecap:round;stroke-width:0.8;"/>
     </g>
     <g id="text_15">
      <!-- +25.0% -->
      <g style="fill:#262626;" transform="translate(44.95625 66.670369)scale(0.2 -0.2)">
       <use xlink:href="#DejaVuSans-2b"/>
       <use x="83.789062" xlink:href="#DejaVuSans-32"/>
       <use x="147.412109" xlink:href="#DejaVuSans-35"/>
       <use x="211.035156" xlink:href="#DejaVuSans-2e"/>
       <use x="242.822266" xlink:href="#DejaVuSans-30"/>
       <use x="306.445312" xlink:href="#DejaVuSans-25"/>
      </g>
     </g>
    </g>
    <g id="text_16">
     <!-- Accuracy Gain -->
     <g style="fill:#262626;" transform="translate(36.796875 262.970313)rotate(-90)scale(0.2 -0.2)">
      <defs>
       <path d="M 2188 4044 
L 1331 1722 
L 3047 1722 
L 2188 4044 
z
M 1831 4666 
L 2547 4666 
L 4325 0 
L 3669 0 
L 3244 1197 
L 1141 1197 
L 716 0 
L 50 0 
L 1831 4666 
z
" id="DejaVuSans-41" transform="scale(0.015625)"/>
       <path d="M 3122 3366 
L 3122 2828 
Q 2878 2963 2633 3030 
Q 2388 3097 2138 3097 
Q 1578 3097 1268 2742 
Q 959 2388 959 1747 
Q 959 1106 1268 751 
Q 1578 397 2138 397 
Q 2388 397 2633 464 
Q 2878 531 3122 666 
L 3122 134 
Q 2881 22 2623 -34 
Q 2366 -91 2075 -91 
Q 1284 -91 818 406 
Q 353 903 353 1747 
Q 353 2603 823 3093 
Q 1294 3584 2113 3584 
Q 2378 3584 2631 3529 
Q 2884 3475 3122 3366 
z
" id="DejaVuSans-63" transform="scale(0.015625)"/>
       <path d="M 3809 666 
L 3809 1919 
L 2778 1919 
L 2778 2438 
L 4434 2438 
L 4434 434 
Q 4069 175 3628 42 
Q 3188 -91 2688 -91 
Q 1594 -91 976 548 
Q 359 1188 359 2328 
Q 359 3472 976 4111 
Q 1594 4750 2688 4750 
Q 3144 4750 3555 4637 
Q 3966 4525 4313 4306 
L 4313 3634 
Q 3963 3931 3569 4081 
Q 3175 4231 2741 4231 
Q 1884 4231 1454 3753 
Q 1025 3275 1025 2328 
Q 1025 1384 1454 906 
Q 1884 428 2741 428 
Q 3075 428 3337 486 
Q 3600 544 3809 666 
z
" id="DejaVuSans-47" transform="scale(0.015625)"/>
      </defs>
      <use xlink:href="#DejaVuSans-41"/>
      <use x="66.658203" xlink:href="#DejaVuSans-63"/>
      <use x="121.638672" xlink:href="#DejaVuSans-63"/>
      <use x="176.619141" xlink:href="#DejaVuSans-75"/>
      <use x="239.998047" xlink:href="#DejaVuSans-72"/>
      <use x="281.111328" xlink:href="#DejaVuSans-61"/>
      <use x="342.390625" xlink:href="#DejaVuSans-63"/>
      <use x="397.371094" xlink:href="#DejaVuSans-79"/>
      <use x="456.550781" xlink:href="#DejaVuSans-20"/>
      <use x="488.337891" xlink:href="#DejaVuSans-47"/>
      <use x="565.828125" xlink:href="#DejaVuSans-61"/>
      <use x="627.107422" xlink:href="#DejaVuSans-69"/>
      <use x="654.890625" xlink:href="#DejaVuSans-6e"/>
     </g>
    </g>
   </g>
   <g id="PolyCollection_1"/>
   <g id="PolyCollection_2"/>
   <g id="PolyCollection_3"/>
   <g id="PolyCollection_4"/>
   <g id="PolyCollection_5"/>
   <g id="line2d_15">
    <path clip-path="url(#p5dd75fe8be)" d="M 157.984091 345.049341 
L 192.296212 344.824251 
L 226.608333 342.01062 
L 260.920455 339.984806 
L 295.232576 332.669367 
L 329.544697 323.103023 
L 363.856818 303.182519 
L 398.168939 277.297118 
L 432.481061 274.821123 
L 466.793182 214.834519 
L 501.105303 205.830901 
L 535.417424 173.755513 
L 569.729545 82.818974 
L 604.041667 42.640329 
L 638.353788 37.013068 
L 672.665909 161.600629 
" style="fill:none;stroke:#1f77b4;stroke-linecap:round;stroke-width:3;"/>
    <defs>
     <path d="M 0 3.5 
C 0.928211 3.5 1.81853 3.131218 2.474874 2.474874 
C 3.131218 1.81853 3.5 0.928211 3.5 0 
C 3.5 -0.928211 3.131218 -1.81853 2.474874 -2.474874 
C 1.81853 -3.131218 0.928211 -3.5 0 -3.5 
C -0.928211 -3.5 -1.81853 -3.131218 -2.474874 -2.474874 
C -3.131218 -1.81853 -3.5 -0.928211 -3.5 0 
C -3.5 0.928211 -3.131218 1.81853 -2.474874 2.474874 
C -1.81853 3.131218 -0.928211 3.5 0 3.5 
z
" id="mb1b8079e96" style="stroke:#ffffff;stroke-width:0.75;"/>
    </defs>
    <g clip-path="url(#p5dd75fe8be)">
     <use style="fill:#1f77b4;stroke:#ffffff;stroke-width:0.75;" x="157.984091" xlink:href="#mb1b8079e96" y="345.049341"/>
     <use style="fill:#1f77b4;stroke:#ffffff;stroke-width:0.75;" x="192.296212" xlink:href="#mb1b8079e96" y="344.824251"/>
     <use style="fill:#1f77b4;stroke:#ffffff;stroke-width:0.75;" x="226.608333" xlink:href="#mb1b8079e96" y="342.01062"/>
     <use style="fill:#1f77b4;stroke:#ffffff;stroke-width:0.75;" x="260.920455" xlink:href="#mb1b8079e96" y="339.984806"/>
     <use style="fill:#1f77b4;stroke:#ffffff;stroke-width:0.75;" x="295.232576" xlink:href="#mb1b8079e96" y="332.669367"/>
     <use style="fill:#1f77b4;stroke:#ffffff;stroke-width:0.75;" x="329.544697" xlink:href="#mb1b8079e96" y="323.103023"/>
     <use style="fill:#1f77b4;stroke:#ffffff;stroke-width:0.75;" x="363.856818" xlink:href="#mb1b8079e96" y="303.182519"/>
     <use style="fill:#1f77b4;stroke:#ffffff;stroke-width:0.75;" x="398.168939" xlink:href="#mb1b8079e96" y="277.297118"/>
     <use style="fill:#1f77b4;stroke:#ffffff;stroke-width:0.75;" x="432.481061" xlink:href="#mb1b8079e96" y="274.821123"/>
     <use style="fill:#1f77b4;stroke:#ffffff;stroke-width:0.75;" x="466.793182" xlink:href="#mb1b8079e96" y="214.834519"/>
     <use style="fill:#1f77b4;stroke:#ffffff;stroke-width:0.75;" x="501.105303" xlink:href="#mb1b8079e96" y="205.830901"/>
     <use style="fill:#1f77b4;stroke:#ffffff;stroke-width:0.75;" x="535.417424" xlink:href="#mb1b8079e96" y="173.755513"/>
     <use style="fill:#1f77b4;stroke:#ffffff;stroke-width:0.75;" x="569.729545" xlink:href="#mb1b8079e96" y="82.818974"/>
     <use style="fill:#1f77b4;stroke:#ffffff;stroke-width:0.75;" x="604.041667" xlink:href="#mb1b8079e96" y="42.640329"/>
     <use style="fill:#1f77b4;stroke:#ffffff;stroke-width:0.75;" x="638.353788" xlink:href="#mb1b8079e96" y="37.013068"/>
     <use style="fill:#1f77b4;stroke:#ffffff;stroke-width:0.75;" x="672.665909" xlink:href="#mb1b8079e96" y="161.600629"/>
    </g>
   </g>
   <g id="line2d_16">
    <path clip-path="url(#p5dd75fe8be)" d="M 157.984091 343.248618 
L 192.296212 341.672985 
L 226.608333 341.110259 
L 260.920455 339.19699 
L 295.232576 338.296628 
L 329.544697 332.444276 
L 363.856818 332.444276 
L 398.168939 331.431369 
L 432.481061 321.414845 
L 466.793182 317.363217 
L 501.105303 301.606886 
L 535.417424 297.667803 
L 569.729545 260.75297 
L 604.041667 214.721974 
L 638.353788 198.628007 
L 672.665909 232.616664 
" style="fill:none;stroke:#ff7f0e;stroke-linecap:round;stroke-width:3;"/>
    <defs>
     <path d="M 0 3.5 
C 0.928211 3.5 1.81853 3.131218 2.474874 2.474874 
C 3.131218 1.81853 3.5 0.928211 3.5 0 
C 3.5 -0.928211 3.131218 -1.81853 2.474874 -2.474874 
C 1.81853 -3.131218 0.928211 -3.5 0 -3.5 
C -0.928211 -3.5 -1.81853 -3.131218 -2.474874 -2.474874 
C -3.131218 -1.81853 -3.5 -0.928211 -3.5 0 
C -3.5 0.928211 -3.131218 1.81853 -2.474874 2.474874 
C -1.81853 3.131218 -0.928211 3.5 0 3.5 
z
" id="mf2482d55c3" style="stroke:#ffffff;stroke-width:0.75;"/>
    </defs>
    <g clip-path="url(#p5dd75fe8be)">
     <use style="fill:#ff7f0e;stroke:#ffffff;stroke-width:0.75;" x="157.984091" xlink:href="#mf2482d55c3" y="343.248618"/>
     <use style="fill:#ff7f0e;stroke:#ffffff;stroke-width:0.75;" x="192.296212" xlink:href="#mf2482d55c3" y="341.672985"/>
     <use style="fill:#ff7f0e;stroke:#ffffff;stroke-width:0.75;" x="226.608333" xlink:href="#mf2482d55c3" y="341.110259"/>
     <use style="fill:#ff7f0e;stroke:#ffffff;stroke-width:0.75;" x="260.920455" xlink:href="#mf2482d55c3" y="339.19699"/>
     <use style="fill:#ff7f0e;stroke:#ffffff;stroke-width:0.75;" x="295.232576" xlink:href="#mf2482d55c3" y="338.296628"/>
     <use style="fill:#ff7f0e;stroke:#ffffff;stroke-width:0.75;" x="329.544697" xlink:href="#mf2482d55c3" y="332.444276"/>
     <use style="fill:#ff7f0e;stroke:#ffffff;stroke-width:0.75;" x="363.856818" xlink:href="#mf2482d55c3" y="332.444276"/>
     <use style="fill:#ff7f0e;stroke:#ffffff;stroke-width:0.75;" x="398.168939" xlink:href="#mf2482d55c3" y="331.431369"/>
     <use style="fill:#ff7f0e;stroke:#ffffff;stroke-width:0.75;" x="432.481061" xlink:href="#mf2482d55c3" y="321.414845"/>
     <use style="fill:#ff7f0e;stroke:#ffffff;stroke-width:0.75;" x="466.793182" xlink:href="#mf2482d55c3" y="317.363217"/>
     <use style="fill:#ff7f0e;stroke:#ffffff;stroke-width:0.75;" x="501.105303" xlink:href="#mf2482d55c3" y="301.606886"/>
     <use style="fill:#ff7f0e;stroke:#ffffff;stroke-width:0.75;" x="535.417424" xlink:href="#mf2482d55c3" y="297.667803"/>
     <use style="fill:#ff7f0e;stroke:#ffffff;stroke-width:0.75;" x="569.729545" xlink:href="#mf2482d55c3" y="260.75297"/>
     <use style="fill:#ff7f0e;stroke:#ffffff;stroke-width:0.75;" x="604.041667" xlink:href="#mf2482d55c3" y="214.721974"/>
     <use style="fill:#ff7f0e;stroke:#ffffff;stroke-width:0.75;" x="638.353788" xlink:href="#mf2482d55c3" y="198.628007"/>
     <use style="fill:#ff7f0e;stroke:#ffffff;stroke-width:0.75;" x="672.665909" xlink:href="#mf2482d55c3" y="232.616664"/>
    </g>
   </g>
   <g id="line2d_17">
    <path clip-path="url(#p5dd75fe8be)" d="M 157.984091 343.586253 
L 192.296212 340.997713 
L 226.608333 344.036434 
L 260.920455 338.521718 
L 295.232576 336.270814 
L 329.544697 326.929561 
L 363.856818 325.128837 
L 398.168939 321.077209 
L 432.481061 313.874315 
L 466.793182 312.073591 
L 501.105303 299.468526 
L 535.417424 284.837647 
L 569.729545 279.435477 
L 604.041667 311.39832 
L 638.353788 320.852119 
L 672.665909 338.859354 
" style="fill:none;stroke:#2ca02c;stroke-linecap:round;stroke-width:3;"/>
    <defs>
     <path d="M 0 3.5 
C 0.928211 3.5 1.81853 3.131218 2.474874 2.474874 
C 3.131218 1.81853 3.5 0.928211 3.5 0 
C 3.5 -0.928211 3.131218 -1.81853 2.474874 -2.474874 
C 1.81853 -3.131218 0.928211 -3.5 0 -3.5 
C -0.928211 -3.5 -1.81853 -3.131218 -2.474874 -2.474874 
C -3.131218 -1.81853 -3.5 -0.928211 -3.5 0 
C -3.5 0.928211 -3.131218 1.81853 -2.474874 2.474874 
C -1.81853 3.131218 -0.928211 3.5 0 3.5 
z
" id="mcb2c91fc87" style="stroke:#ffffff;stroke-width:0.75;"/>
    </defs>
    <g clip-path="url(#p5dd75fe8be)">
     <use style="fill:#2ca02c;stroke:#ffffff;stroke-width:0.75;" x="157.984091" xlink:href="#mcb2c91fc87" y="343.586253"/>
     <use style="fill:#2ca02c;stroke:#ffffff;stroke-width:0.75;" x="192.296212" xlink:href="#mcb2c91fc87" y="340.997713"/>
     <use style="fill:#2ca02c;stroke:#ffffff;stroke-width:0.75;" x="226.608333" xlink:href="#mcb2c91fc87" y="344.036434"/>
     <use style="fill:#2ca02c;stroke:#ffffff;stroke-width:0.75;" x="260.920455" xlink:href="#mcb2c91fc87" y="338.521718"/>
     <use style="fill:#2ca02c;stroke:#ffffff;stroke-width:0.75;" x="295.232576" xlink:href="#mcb2c91fc87" y="336.270814"/>
     <use style="fill:#2ca02c;stroke:#ffffff;stroke-width:0.75;" x="329.544697" xlink:href="#mcb2c91fc87" y="326.929561"/>
     <use style="fill:#2ca02c;stroke:#ffffff;stroke-width:0.75;" x="363.856818" xlink:href="#mcb2c91fc87" y="325.128837"/>
     <use style="fill:#2ca02c;stroke:#ffffff;stroke-width:0.75;" x="398.168939" xlink:href="#mcb2c91fc87" y="321.077209"/>
     <use style="fill:#2ca02c;stroke:#ffffff;stroke-width:0.75;" x="432.481061" xlink:href="#mcb2c91fc87" y="313.874315"/>
     <use style="fill:#2ca02c;stroke:#ffffff;stroke-width:0.75;" x="466.793182" xlink:href="#mcb2c91fc87" y="312.073591"/>
     <use style="fill:#2ca02c;stroke:#ffffff;stroke-width:0.75;" x="501.105303" xlink:href="#mcb2c91fc87" y="299.468526"/>
     <use style="fill:#2ca02c;stroke:#ffffff;stroke-width:0.75;" x="535.417424" xlink:href="#mcb2c91fc87" y="284.837647"/>
     <use style="fill:#2ca02c;stroke:#ffffff;stroke-width:0.75;" x="569.729545" xlink:href="#mcb2c91fc87" y="279.435477"/>
     <use style="fill:#2ca02c;stroke:#ffffff;stroke-width:0.75;" x="604.041667" xlink:href="#mcb2c91fc87" y="311.39832"/>
     <use style="fill:#2ca02c;stroke:#ffffff;stroke-width:0.75;" x="638.353788" xlink:href="#mcb2c91fc87" y="320.852119"/>
     <use style="fill:#2ca02c;stroke:#ffffff;stroke-width:0.75;" x="672.665909" xlink:href="#mcb2c91fc87" y="338.859354"/>
    </g>
   </g>
   <g id="line2d_18">
    <path clip-path="url(#p5dd75fe8be)" d="M 157.984091 341.335349 
L 192.296212 340.772623 
L 226.608333 335.933178 
L 260.920455 335.370452 
L 295.232576 335.933178 
L 329.544697 330.868643 
L 363.856818 323.89084 
L 398.168939 318.151033 
L 432.481061 316.012674 
L 466.793182 288.55164 
L 501.105303 287.876368 
L 535.417424 281.123655 
L 569.729545 270.994585 
L 604.041667 273.47058 
L 638.353788 250.061174 
L 672.665909 253.550076 
" style="fill:none;stroke:#d62728;stroke-linecap:round;stroke-width:3;"/>
    <defs>
     <path d="M 0 3.5 
C 0.928211 3.5 1.81853 3.131218 2.474874 2.474874 
C 3.131218 1.81853 3.5 0.928211 3.5 0 
C 3.5 -0.928211 3.131218 -1.81853 2.474874 -2.474874 
C 1.81853 -3.131218 0.928211 -3.5 0 -3.5 
C -0.928211 -3.5 -1.81853 -3.131218 -2.474874 -2.474874 
C -3.131218 -1.81853 -3.5 -0.928211 -3.5 0 
C -3.5 0.928211 -3.131218 1.81853 -2.474874 2.474874 
C -1.81853 3.131218 -0.928211 3.5 0 3.5 
z
" id="ma85f2d0aba" style="stroke:#ffffff;stroke-width:0.75;"/>
    </defs>
    <g clip-path="url(#p5dd75fe8be)">
     <use style="fill:#d62728;stroke:#ffffff;stroke-width:0.75;" x="157.984091" xlink:href="#ma85f2d0aba" y="341.335349"/>
     <use style="fill:#d62728;stroke:#ffffff;stroke-width:0.75;" x="192.296212" xlink:href="#ma85f2d0aba" y="340.772623"/>
     <use style="fill:#d62728;stroke:#ffffff;stroke-width:0.75;" x="226.608333" xlink:href="#ma85f2d0aba" y="335.933178"/>
     <use style="fill:#d62728;stroke:#ffffff;stroke-width:0.75;" x="260.920455" xlink:href="#ma85f2d0aba" y="335.370452"/>
     <use style="fill:#d62728;stroke:#ffffff;stroke-width:0.75;" x="295.232576" xlink:href="#ma85f2d0aba" y="335.933178"/>
     <use style="fill:#d62728;stroke:#ffffff;stroke-width:0.75;" x="329.544697" xlink:href="#ma85f2d0aba" y="330.868643"/>
     <use style="fill:#d62728;stroke:#ffffff;stroke-width:0.75;" x="363.856818" xlink:href="#ma85f2d0aba" y="323.89084"/>
     <use style="fill:#d62728;stroke:#ffffff;stroke-width:0.75;" x="398.168939" xlink:href="#ma85f2d0aba" y="318.151033"/>
     <use style="fill:#d62728;stroke:#ffffff;stroke-width:0.75;" x="432.481061" xlink:href="#ma85f2d0aba" y="316.012674"/>
     <use style="fill:#d62728;stroke:#ffffff;stroke-width:0.75;" x="466.793182" xlink:href="#ma85f2d0aba" y="288.55164"/>
     <use style="fill:#d62728;stroke:#ffffff;stroke-width:0.75;" x="501.105303" xlink:href="#ma85f2d0aba" y="287.876368"/>
     <use style="fill:#d62728;stroke:#ffffff;stroke-width:0.75;" x="535.417424" xlink:href="#ma85f2d0aba" y="281.123655"/>
     <use style="fill:#d62728;stroke:#ffffff;stroke-width:0.75;" x="569.729545" xlink:href="#ma85f2d0aba" y="270.994585"/>
     <use style="fill:#d62728;stroke:#ffffff;stroke-width:0.75;" x="604.041667" xlink:href="#ma85f2d0aba" y="273.47058"/>
     <use style="fill:#d62728;stroke:#ffffff;stroke-width:0.75;" x="638.353788" xlink:href="#ma85f2d0aba" y="250.061174"/>
     <use style="fill:#d62728;stroke:#ffffff;stroke-width:0.75;" x="672.665909" xlink:href="#ma85f2d0aba" y="253.550076"/>
    </g>
   </g>
   <g id="line2d_19">
    <path clip-path="url(#p5dd75fe8be)" d="M 157.984091 343.586253 
L 192.296212 345.274432 
L 226.608333 344.37407 
L 260.920455 344.37407 
L 295.232576 342.685892 
L 329.544697 337.508811 
L 363.856818 335.595543 
L 398.168939 335.257907 
L 432.481061 327.942468 
L 466.793182 330.756098 
L 501.105303 326.817015 
L 535.417424 318.151033 
L 569.729545 315.112312 
L 604.041667 309.935232 
L 638.353788 302.957428 
L 672.665909 279.322932 
" style="fill:none;stroke:#9467bd;stroke-linecap:round;stroke-width:3;"/>
    <defs>
     <path d="M 0 3.5 
C 0.928211 3.5 1.81853 3.131218 2.474874 2.474874 
C 3.131218 1.81853 3.5 0.928211 3.5 0 
C 3.5 -0.928211 3.131218 -1.81853 2.474874 -2.474874 
C 1.81853 -3.131218 0.928211 -3.5 0 -3.5 
C -0.928211 -3.5 -1.81853 -3.131218 -2.474874 -2.474874 
C -3.131218 -1.81853 -3.5 -0.928211 -3.5 0 
C -3.5 0.928211 -3.131218 1.81853 -2.474874 2.474874 
C -1.81853 3.131218 -0.928211 3.5 0 3.5 
z
" id="m671283bbe5" style="stroke:#ffffff;stroke-width:0.75;"/>
    </defs>
    <g clip-path="url(#p5dd75fe8be)">
     <use style="fill:#9467bd;stroke:#ffffff;stroke-width:0.75;" x="157.984091" xlink:href="#m671283bbe5" y="343.586253"/>
     <use style="fill:#9467bd;stroke:#ffffff;stroke-width:0.75;" x="192.296212" xlink:href="#m671283bbe5" y="345.274432"/>
     <use style="fill:#9467bd;stroke:#ffffff;stroke-width:0.75;" x="226.608333" xlink:href="#m671283bbe5" y="344.37407"/>
     <use style="fill:#9467bd;stroke:#ffffff;stroke-width:0.75;" x="260.920455" xlink:href="#m671283bbe5" y="344.37407"/>
     <use style="fill:#9467bd;stroke:#ffffff;stroke-width:0.75;" x="295.232576" xlink:href="#m671283bbe5" y="342.685892"/>
     <use style="fill:#9467bd;stroke:#ffffff;stroke-width:0.75;" x="329.544697" xlink:href="#m671283bbe5" y="337.508811"/>
     <use style="fill:#9467bd;stroke:#ffffff;stroke-width:0.75;" x="363.856818" xlink:href="#m671283bbe5" y="335.595543"/>
     <use style="fill:#9467bd;stroke:#ffffff;stroke-width:0.75;" x="398.168939" xlink:href="#m671283bbe5" y="335.257907"/>
     <use style="fill:#9467bd;stroke:#ffffff;stroke-width:0.75;" x="432.481061" xlink:href="#m671283bbe5" y="327.942468"/>
     <use style="fill:#9467bd;stroke:#ffffff;stroke-width:0.75;" x="466.793182" xlink:href="#m671283bbe5" y="330.756098"/>
     <use style="fill:#9467bd;stroke:#ffffff;stroke-width:0.75;" x="501.105303" xlink:href="#m671283bbe5" y="326.817015"/>
     <use style="fill:#9467bd;stroke:#ffffff;stroke-width:0.75;" x="535.417424" xlink:href="#m671283bbe5" y="318.151033"/>
     <use style="fill:#9467bd;stroke:#ffffff;stroke-width:0.75;" x="569.729545" xlink:href="#m671283bbe5" y="315.112312"/>
     <use style="fill:#9467bd;stroke:#ffffff;stroke-width:0.75;" x="604.041667" xlink:href="#m671283bbe5" y="309.935232"/>
     <use style="fill:#9467bd;stroke:#ffffff;stroke-width:0.75;" x="638.353788" xlink:href="#m671283bbe5" y="302.957428"/>
     <use style="fill:#9467bd;stroke:#ffffff;stroke-width:0.75;" x="672.665909" xlink:href="#m671283bbe5" y="279.322932"/>
    </g>
   </g>
   <g id="line2d_20"/>
   <g id="line2d_21"/>
   <g id="line2d_22"/>
   <g id="line2d_23"/>
   <g id="line2d_24"/>
   <g id="patch_3">
    <path d="M 132.25 360.6875 
L 132.25 21.6 
" style="fill:none;stroke:#cccccc;stroke-linecap:square;stroke-linejoin:miter;stroke-width:0.8;"/>
   </g>
   <g id="patch_4">
    <path d="M 698.4 360.6875 
L 698.4 21.6 
" style="fill:none;stroke:#cccccc;stroke-linecap:square;stroke-linejoin:miter;stroke-width:0.8;"/>
   </g>
   <g id="patch_5">
    <path d="M 132.25 360.6875 
L 698.4 360.6875 
" style="fill:none;stroke:#cccccc;stroke-linecap:square;stroke-linejoin:miter;stroke-width:0.8;"/>
   </g>
   <g id="patch_6">
    <path d="M 132.25 21.6 
L 698.4 21.6 
" style="fill:none;stroke:#cccccc;stroke-linecap:square;stroke-linejoin:miter;stroke-width:0.8;"/>
   </g>
   <g id="legend_1">
    <g id="patch_7">
     <path d="M 146.25 184.38125 
L 280.046875 184.38125 
Q 284.046875 184.38125 284.046875 180.38125 
L 284.046875 35.6 
Q 284.046875 31.6 280.046875 31.6 
L 146.25 31.6 
Q 142.25 31.6 142.25 35.6 
L 142.25 180.38125 
Q 142.25 184.38125 146.25 184.38125 
z
" style="fill:#ffffff;opacity:0.8;stroke:#cccccc;stroke-linejoin:miter;"/>
    </g>
    <g id="line2d_25">
     <path d="M 150.25 47.796875 
L 190.25 47.796875 
" style="fill:none;stroke:#1f77b4;stroke-linecap:round;stroke-width:3;"/>
    </g>
    <g id="line2d_26"/>
    <g id="text_17">
     <!-- Conv 0 -->
     <g style="fill:#262626;" transform="translate(206.25 54.796875)scale(0.2 -0.2)">
      <defs>
       <path d="M 4122 4306 
L 4122 3641 
Q 3803 3938 3442 4084 
Q 3081 4231 2675 4231 
Q 1875 4231 1450 3742 
Q 1025 3253 1025 2328 
Q 1025 1406 1450 917 
Q 1875 428 2675 428 
Q 3081 428 3442 575 
Q 3803 722 4122 1019 
L 4122 359 
Q 3791 134 3420 21 
Q 3050 -91 2638 -91 
Q 1578 -91 968 557 
Q 359 1206 359 2328 
Q 359 3453 968 4101 
Q 1578 4750 2638 4750 
Q 3056 4750 3426 4639 
Q 3797 4528 4122 4306 
z
" id="DejaVuSans-43" transform="scale(0.015625)"/>
       <path d="M 191 3500 
L 800 3500 
L 1894 563 
L 2988 3500 
L 3597 3500 
L 2284 0 
L 1503 0 
L 191 3500 
z
" id="DejaVuSans-76" transform="scale(0.015625)"/>
      </defs>
      <use xlink:href="#DejaVuSans-43"/>
      <use x="69.824219" xlink:href="#DejaVuSans-6f"/>
      <use x="131.005859" xlink:href="#DejaVuSans-6e"/>
      <use x="194.384766" xlink:href="#DejaVuSans-76"/>
      <use x="253.564453" xlink:href="#DejaVuSans-20"/>
      <use x="285.351562" xlink:href="#DejaVuSans-30"/>
     </g>
    </g>
    <g id="line2d_27">
     <path d="M 150.25 77.153125 
L 190.25 77.153125 
" style="fill:none;stroke:#ff7f0e;stroke-linecap:round;stroke-width:3;"/>
    </g>
    <g id="line2d_28"/>
    <g id="text_18">
     <!-- Conv 1 -->
     <g style="fill:#262626;" transform="translate(206.25 84.153125)scale(0.2 -0.2)">
      <use xlink:href="#DejaVuSans-43"/>
      <use x="69.824219" xlink:href="#DejaVuSans-6f"/>
      <use x="131.005859" xlink:href="#DejaVuSans-6e"/>
      <use x="194.384766" xlink:href="#DejaVuSans-76"/>
      <use x="253.564453" xlink:href="#DejaVuSans-20"/>
      <use x="285.351562" xlink:href="#DejaVuSans-31"/>
     </g>
    </g>
    <g id="line2d_29">
     <path d="M 150.25 106.509375 
L 190.25 106.509375 
" style="fill:none;stroke:#2ca02c;stroke-linecap:round;stroke-width:3;"/>
    </g>
    <g id="line2d_30"/>
    <g id="text_19">
     <!-- Conv 2 -->
     <g style="fill:#262626;" transform="translate(206.25 113.509375)scale(0.2 -0.2)">
      <use xlink:href="#DejaVuSans-43"/>
      <use x="69.824219" xlink:href="#DejaVuSans-6f"/>
      <use x="131.005859" xlink:href="#DejaVuSans-6e"/>
      <use x="194.384766" xlink:href="#DejaVuSans-76"/>
      <use x="253.564453" xlink:href="#DejaVuSans-20"/>
      <use x="285.351562" xlink:href="#DejaVuSans-32"/>
     </g>
    </g>
    <g id="line2d_31">
     <path d="M 150.25 135.865625 
L 190.25 135.865625 
" style="fill:none;stroke:#d62728;stroke-linecap:round;stroke-width:3;"/>
    </g>
    <g id="line2d_32"/>
    <g id="text_20">
     <!-- Conv 3 -->
     <g style="fill:#262626;" transform="translate(206.25 142.865625)scale(0.2 -0.2)">
      <use xlink:href="#DejaVuSans-43"/>
      <use x="69.824219" xlink:href="#DejaVuSans-6f"/>
      <use x="131.005859" xlink:href="#DejaVuSans-6e"/>
      <use x="194.384766" xlink:href="#DejaVuSans-76"/>
      <use x="253.564453" xlink:href="#DejaVuSans-20"/>
      <use x="285.351562" xlink:href="#DejaVuSans-33"/>
     </g>
    </g>
    <g id="line2d_33">
     <path d="M 150.25 165.221875 
L 190.25 165.221875 
" style="fill:none;stroke:#9467bd;stroke-linecap:round;stroke-width:3;"/>
    </g>
    <g id="line2d_34"/>
    <g id="text_21">
     <!-- Conv 4 -->
     <g style="fill:#262626;" transform="translate(206.25 172.221875)scale(0.2 -0.2)">
      <use xlink:href="#DejaVuSans-43"/>
      <use x="69.824219" xlink:href="#DejaVuSans-6f"/>
      <use x="131.005859" xlink:href="#DejaVuSans-6e"/>
      <use x="194.384766" xlink:href="#DejaVuSans-76"/>
      <use x="253.564453" xlink:href="#DejaVuSans-20"/>
      <use x="285.351562" xlink:href="#DejaVuSans-34"/>
     </g>
    </g>
   </g>
  </g>
 </g>
 <defs>
  <clipPath id="p5dd75fe8be">
   <rect height="339.0875" width="566.15" x="132.25" y="21.6"/>
  </clipPath>
 </defs>
</svg>
